<svg xmlns="http://www.w3.org/2000/svg" viewBox="0 0 1015 340">
  <defs>
    <style>
      .cs1, .cs2 {
        fill-rule: evenodd;
      }
      .cs2, .cs3 {
        fill: #fff;
      }
    </style>
  </defs>
  <path class="cs1" d="M962.39,11H72C18.85,11,10,29.4,10,73.16V289.23C10,333,28.2,351,71.93,351H962.4c43.76,0,62.6-18.07,62.6-61.83v-216C1025,29.4,1006.15,11,962.39,11Z" transform="translate(-10 -11)"></path>
  <path class="cs2" d="M274.63,222.64C269.52,234,267.07,239,260.49,249c-9.19,14-22.13,31.4-38.17,31.54-14.25.13-17.91-9.28-37.25-9.17s-23.38,9.34-37.64,9.21c-16-.15-28.3-15.88-37.49-29.85-25.68-39.1-28.36-85-12.53-109.37,11.26-17.34,29-27.48,45.71-27.48,17,0,27.69,9.32,41.75,9.32,13.63,0,21.94-9.34,41.59-9.34,14.86,0,30.6,8.09,41.82,22.08-36.75,20.14-30.78,72.63,6.35,86.66" transform="translate(-10 -11)"></path>
  <path class="cs2" d="M211.55,98.29c7.14-9.17,12.57-22.12,10.6-35.34-11.66.8-25.31,8.22-33.28,17.9-7.23,8.78-13.2,21.81-10.87,34.47,12.73.39,25.9-7.21,33.55-17" transform="translate(-10 -11)"></path>
  <path class="cs2" d="M934.37,241H882.74c.2,7,2.7,13.14,7.49,17.17,4.35,3.62,10,5.27,16.89,5.27A56.23,56.23,0,0,0,928,259.66l2.71,11.93c-7.3,3.21-16,4.75-26,4.75q-18,0-28.26-10.59t-10.3-28.43c0-11.71,3.2-21.41,9.56-29.2q10.08-12.41,27.1-12.41,16.79,0,25.34,12.41c4.55,6.6,6.85,15.07,6.85,24.73A45.1,45.1,0,0,1,934.37,241ZM861,212.59a26.88,26.88,0,0,0-5.55-.44c-6.06,0-10.78,2.28-14.08,6.84-2.88,4-4.37,9.07-4.37,15.28V274H820V221.81c0-8.87-.37-16.81-.67-24.81h15l.64,16h.47A27.45,27.45,0,0,1,844,200.4a21.18,21.18,0,0,1,12.58-4.32,28.42,28.42,0,0,1,4.4.12Zm-62.22,52.3q-10.71,11.76-28.36,11.76-17.07,0-27.21-11.31c-6.73-7.52-10.09-17.07-10.09-28.52q0-18,10.43-29.47c7-7.68,16.31-11.45,28.1-11.45,11.41,0,20.54,3.73,27.44,11.31C805.66,214.5,809,224,809,235.55,809,247.48,805.58,257.22,798.78,264.89ZM728,211H710v37c0,9.56,3,14.29,9.66,14.29a29.34,29.34,0,0,0,7.44-.75l.39,13a39.31,39.31,0,0,1-13.44,1.92c-6.76,0-12.29-2-16.11-6.22S692,259.18,692,249.41V211H681V197h11V183.28l18-5.1V197h18Zm-60.49,56.08q-10.54,9.42-29.26,9.4c-11.58,0-20.84-2.24-27.84-6.68l4-14.34a48.08,48.08,0,0,0,24.83,6.69c6.51,0,11.54-1.48,15.15-4.38a14.31,14.31,0,0,0,5.4-11.76,15,15,0,0,0-4.44-10.95c-3-3-7.9-5.71-14.82-8.29Q612.36,216.29,612.34,196a27.09,27.09,0,0,1,9.93-21.68q10-8.43,26.39-8.44,14.64,0,24.39,5.09l-4.35,14a42.58,42.58,0,0,0-20.61-4.94c-6.06,0-10.82,1.54-14.24,4.44a12.92,12.92,0,0,0-4.3,9.75,13.3,13.3,0,0,0,4.93,10.54q4.32,3.81,15.6,8.26c9.28,3.69,16,8.07,20.42,13.08S677,237.35,677,244.77C677,253.92,673.84,261.38,667.51,267.08Zm-99.43-.6a31.66,31.66,0,0,1-23.93,10.17c-10.25,0-17.15-3.65-22.15-11V307H505V222.9c0-8.27-.32-15.9-.73-25.9h15.1l1,13h.3c5.77-9,14.45-14,26.14-14a28.61,28.61,0,0,1,22.87,10.75q9.18,10.8,9.17,28.48C578.84,248.48,575.26,258.82,568.08,266.48Zm-85.08,0a31.56,31.56,0,0,1-23.88,10.17c-10.28,0-17.12-3.65-22.12-11V307H420V222.9c0-8.27-.39-15.9-.83-25.9h15.14l.95,13h.3c5.77-9,14.46-14,26.16-14,9.14,0,16.74,3.51,22.88,10.75s9.16,16.7,9.16,28.48C493.76,248.48,490.18,258.82,483,266.48ZM391,274l-10-31H346l-9.58,31H318.64l34.54-107h21.38l34.75,107Zm510.57-66.36c-5.62,0-10.18,2.88-13.71,7.52A24.65,24.65,0,0,0,882.74,229h35.84c.1-6-1-9.95-3.33-13.69A15.49,15.49,0,0,0,901.54,207.64ZM363.4,182h-.3c-1.08,5-2.76,11.66-5.12,20.59L349.06,231h28.83l-9-28.41C367.87,199.71,366,192,363.4,182Zm177.83,27.56a17.77,17.77,0,0,0-11.54,4.2,19.94,19.94,0,0,0-6.85,11.12,23.1,23.1,0,0,0-.84,5.27V243a20.69,20.69,0,0,0,5.23,14.29,17.31,17.31,0,0,0,13.47,5.79c6.51,0,11.56-2.48,15.18-7.48s5.44-11.58,5.44-19.79c0-7.52-1.71-13.74-5.1-18.61A17.74,17.74,0,0,0,541.23,209.56ZM771,208.48c-6.88,0-12.15,3.06-15.74,9.21-3.11,5.07-4.64,11.25-4.64,18.56,0,7.13,1.53,13.2,4.64,18.28q5.52,9.21,15.61,9.2c6.55,0,11.72-3.1,15.42-9.39,3.21-5.14,4.81-11.31,4.81-18.38s-1.54-13.2-4.6-18.27C782.86,211.54,777.72,208.48,771,208.48Zm-314.9,1.08a17.81,17.81,0,0,0-11.53,4.2,19.85,19.85,0,0,0-6.79,11.12,22.72,22.72,0,0,0-.8,5.27V243a20.65,20.65,0,0,0,5.18,14.29,17.29,17.29,0,0,0,13.46,5.79c6.47,0,11.55-2.48,15.16-7.48s5.4-11.58,5.4-19.79c0-7.52-1.68-13.74-5.08-18.61A17.72,17.72,0,0,0,456.12,209.56Z" transform="translate(-10 -11)"></path>
  <path class="cs3" d="M371.41,85.12v47.37l5.26.25-.58,21.55h-7.73l-.57-13.74H334.15l-.58,13.74h-7.73l-.49-21.55,4.44-.25a58.53,58.53,0,0,0,5.35-12.25c1.72-5.93,2.38-12.67,2.38-20.65V85.12Zm-24.51,17a68.91,68.91,0,0,1-2.64,20.23,51.68,51.68,0,0,1-4.11,9.87h21.14V93.42H346.9Z" transform="translate(-10 -11)"></path>
  <path class="cs3" d="M421.91,120.15c0,14.73-10.37,21.31-20.56,21.31-11.35,0-20.07-7.82-20.07-20.65,0-13.16,8.63-21.22,20.72-21.22C413.93,99.59,421.91,108,421.91,120.15Zm-30.19.41c0,7.74,3.79,13.58,10,13.58,5.75,0,9.78-5.68,9.78-13.74,0-6.25-2.79-13.41-9.7-13.41C394.6,107,391.72,113.9,391.72,120.56Z" transform="translate(-10 -11)"></path>
  <path class="cs3" d="M459.66,139.32a29.43,29.43,0,0,1-11.35,2.05c-12.5,0-20.64-8-20.64-20.39,0-12,8.22-21.39,22.29-21.39a25.18,25.18,0,0,1,9.78,1.89l-1.81,7.57a17.8,17.8,0,0,0-7.64-1.56c-7.74,0-12.34,5.67-12.26,13,0,8.23,5.35,12.92,12.26,12.92a19.78,19.78,0,0,0,8-1.57Z" transform="translate(-10 -11)"></path>
  <path class="cs3" d="M498.07,100.5v7.81h-12v32.24H476V108.31h-12V100.5Z" transform="translate(-10 -11)"></path>
  <path class="cs3" d="M511.89,100.5,519.13,122c.82,2.47,1.64,5.51,2.22,7.82h.25c.65-2.31,1.39-5.27,2.13-7.9L530,100.5h10.86l-10,27.3c-5.51,15-9.21,21.63-14,25.74a20.36,20.36,0,0,1-10.61,5.19l-2.31-8.56a17.2,17.2,0,0,0,5.92-2.79,17.63,17.63,0,0,0,5.52-6.34,4,4,0,0,0,.65-1.81,4.3,4.3,0,0,0-.57-2L500.79,100.5Z" transform="translate(-10 -11)"></path>
  <path class="cs3" d="M582,100.5v40.05h-10.2V108.31h-15v32.24H546.6V100.5Z" transform="translate(-10 -11)"></path>
  <path class="cs3" d="M602.78,100.5v15.29h15.46V100.5h10.12v40.05H618.24V123.69H602.78v16.86H592.66V100.5Z" transform="translate(-10 -11)"></path>
  <path class="cs3" d="M677.21,120.15c0,14.73-10.36,21.31-20.56,21.31-11.35,0-20.07-7.82-20.07-20.65,0-13.16,8.64-21.22,20.73-21.22C669.24,99.59,677.21,108,677.21,120.15Zm-30.18.41c0,7.74,3.78,13.58,10,13.58,5.76,0,9.79-5.68,9.79-13.74,0-6.25-2.8-13.41-9.71-13.41C649.91,107,647,113.9,647,120.56Z" transform="translate(-10 -11)"></path>
  <path class="cs3" d="M702.47,101A105.44,105.44,0,0,1,717,100c6.75,0,18.92.91,18.92,10.12,0,5.1-4,8-8.22,8.88v.17c5.92.9,10,4.19,10,9.78,0,11-14.48,12.09-22.54,12.09-5,0-10.36-.33-12.74-.57Zm9.78,33.47a42.69,42.69,0,0,0,4.94.25c4.6,0,10.2-1.23,10.2-5.92,0-4.52-4.45-6-10.78-6h-4.36Zm.09-17.76h4.19c5.18,0,9.46-1.48,9.46-5.26,0-3.21-2.8-4.94-8.8-4.94a41.74,41.74,0,0,0-4.85.33Z" transform="translate(-10 -11)"></path>
</svg>