<svg xmlns="http://www.w3.org/2000/svg" viewBox="0 0 1414.5 1414.5">
  <path d="M1579.53,594.45c-108.33-154.71-270.42-258-456.42-290.77s-373.62,8.8-528.33,117.13S336.81,691.23,304,877.22s8.8,373.63,117.13,528.33,270.42,258,456.41,290.77,373.63-8.8,528.34-117.13,258-270.41,290.77-456.41S1687.85,749.15,1579.53,594.45ZM1348.37,1298.8q-5.13,27.3-51.57,59.81s-19.19,12.35-19.68,12.58q-76.21,36.93-164,49.14a995.13,995.13,0,0,1-160-126.79q-74.45-72.43-137.76-162.83-64.63-92.31-107.42-187.33A975.32,975.32,0,0,1,643.7,750q37.21-74.55,105-139.78c.37-.32,21.05-15.37,21.05-15.37q41.58-29.12,68.52-23.82t57.07,48.33Q979.14,739,882.13,807l-30,21Q785,875,912.47,1057.1q131.87,188.33,199.08,141.27l24.76-17.34q103.25-72.3,185.77,45.57Q1353.52,1271.49,1348.37,1298.8Z" transform="translate(-293.08 -292.75)"/>
</svg>