<svg xmlns="http://www.w3.org/2000/svg" xmlns:xlink="http://www.w3.org/1999/xlink" x="0px" y="0px" viewBox="0 0 320 512" style="enable-background:new 0 0 320 512;" xml:space="preserve">
	<path d="M4.7,274.8c-13.1,25.7,1.8,38,35.6,59c28.8,17.8,68.6,24.3,94.1,26.9C124,370.8,172,324.6,33.8,457.6 C4.5,485.7,51.7,530.7,81,503.2l79.3-76.5c30.4,29.2,59.5,57.2,79.3,76.6c29.3,27.6,76.5-17.1,47.5-45.7 c-2.2-2.1-107.5-103.1-101-96.9c25.9-2.6,65.1-9.5,93.5-26.9l0,0c33.9-21.1,48.7-33.4,35.8-59.1c-7.8-14.6-28.8-26.8-56.7-5.7 c0,0-37.7,28.9-98.6,28.9c-60.9,0-98.6-28.9-98.6-28.9C33.5,247.9,12.4,260.2,4.7,274.8L4.7,274.8z"/>
	<path d="M160,259c74.2,0,134.8-58,134.8-129.4C294.8,58,234.2,0,160,0C85.8,0,25.2,58,25.2,129.7C25.2,201,85.8,259,160,259z M160,65.7c36.5,0,66.2,28.6,66.2,64c0,35.1-29.7,63.7-66.2,63.7s-66.2-28.6-66.2-63.7C93.8,94.3,123.5,65.7,160,65.7L160,65.7z"/>
</svg>
