<svg class="footer__app-icon" id="Rus" xmlns="http://www.w3.org/2000/svg" viewBox="0 0 1015 340"><defs><style>.cs6{fill-rule:evenodd}.cs6{fill:#fff}</style></defs><path d="M962.39 430H72c-53.14 0-62 18.4-62 62.16v216.07C10 752 28.2 770 71.93 770H962.4c43.76 0 62.6-18.07 62.6-61.83v-216c0-43.77-18.85-62.17-62.61-62.17Z" transform="translate(-10 -430)" style="fill-rule:evenodd"/><text transform="translate(320.18 245.29)" style="font-family:ArialMT,Arial;fill:#fff;font-size:122.28px">AppGallery</text><text transform="translate(314.26 121.04)" style="font-size:63.11px;font-family:ArialMT,Arial;fill:#fff">
    ОТК
    <tspan x="124.4" y="0" style="letter-spacing:-.02em">Р</tspan>
    <tspan x="165.11" y="0">ОЙТЕ В</tspan>
  </text><path d="M220.65 505.67h-81.94c-38.59 0-52.71 14.12-52.71 52.72v81.93c0 38.6 14.12 52.72 52.71 52.72h81.91c38.6 0 52.74-14.12 52.74-52.72v-81.93c0-38.6-14.11-52.72-52.71-52.72Z" transform="translate(-10 -430)" style="fill:#c7102d;fill-rule:evenodd"/><path class="cs6" d="M123.1 599.37h5v24.5h-5v-10h-11.22v10h-5v-24.5h5v9.88h11.22v-9.88Zm28 14c0 4-2 6.11-5.57 6.11s-5.6-2.19-5.6-6.28v-13.82h-5v14c0 6.89 3.83 10.84 10.51 10.84s10.6-4 10.6-11v-13.85h-5v14Zm57.44 2.83L203 599.37h-4.06l-5.56 16.85-5.38-16.84h-5.29l8.54 24.49h4.11l5.57-16.09 5.57 16.09h4.15l8.52-24.49H214l-5.43 16.84Zm19.49-2.9h9v-4.46h-9v-5h13.12v-4.46h-18v24.46h18.49v-4.46H228v-6.07Zm19.52 10.52h4.9v-24.45h-4.9v24.47Zm-81.66-5.09-2.23 5.1h-5.07l10.79-24.48h4.39l10.74 24.48h-5.21l-2.2-5.1Zm1.85-4.41h7.52l-3.77-8.77ZM179.68 568.18A31.22 31.22 0 0 1 148.49 537h4.41a26.78 26.78 0 1 0 53.56 0h4.41a31.22 31.22 0 0 1-31.19 31.18Z" transform="translate(-10 -430)"/></svg>