<svg class="footer__app-icon" id="Rus" xmlns="http://www.w3.org/2000/svg" viewBox="0 0 1015 340">
  <defs>
    <style>.cs1, .cs5, .cs6 {
  fill-rule: evenodd;
}

.cs2 {
  font-size: 122.28px;
}

.cs2, .cs3, .cs6 {
  fill: #fff;
}

.cs2, .cs3 {
  font-family: ArialMT, Arial;
}

.cs3 {
  font-size: 63.11px;
}

.cs4 {
  letter-spacing: -.02em;
}

.cs5 {
  fill: #c7102d;
}

</style>
  </defs>
  <path class="cs1" d="M962.39,430H72c-53.14,0-62,18.4-62,62.16V708.23C10,752,28.2,770,71.93,770H962.4c43.76,0,62.6-18.07,62.6-61.83v-216C1025,448.4,1006.15,430,962.39,430Z" transform="translate(-10 -430)"></path>
  <text class="cs2" transform="translate(320.18 245.29)">AppGallery</text>
  <text class="cs3" transform="translate(314.26 121.04)">
    ОТК
    <tspan class="cs4" x="124.4" y="0">Р</tspan>
    <tspan x="165.11" y="0">ОЙТЕ В</tspan>
  </text>
  <path class="cs5" d="M220.65,505.67H138.71c-38.59,0-52.71,14.12-52.71,52.72v81.93c0,38.6,14.12,52.72,52.71,52.72h81.91c38.6,0,52.74-14.12,52.74-52.72V558.39C273.36,519.79,259.25,505.67,220.65,505.67Z" transform="translate(-10 -430)"></path>
  <path class="cs6" d="M123.1,599.37h5v24.5h-5v-10H111.88v10h-5v-24.5h5v9.88H123.1v-9.88Zm28,14h0c0,4-2,6.11-5.57,6.11s-5.6-2.19-5.6-6.28V599.38h-5v14c0,6.89,3.83,10.84,10.51,10.84s10.6-4,10.6-11V599.37h-5v14Zm57.44,2.83h0L203,599.37h-4.06l-5.56,16.85L188,599.38h-5.29l8.54,24.49h4.11l5.57-16.09,5.57,16.09h4.15l8.52-24.49H214l-5.43,16.84Zm19.49-2.9h9v-4.46h-9v-5h13.12v-4.46h-18v24.46h18.49v-4.46H228v-6.07Zm19.52,10.52h4.9V599.37h-4.9v24.47Zm-81.66-5.09h0l-2.23,5.1h-5.07l10.79-24.48h4.39l10.74,24.48H179.3l-2.2-5.1Zm1.85-4.41h7.52l-3.77-8.77Z" transform="translate(-10 -430)"></path>
  <path class="cs6" d="M179.68,568.18A31.22,31.22,0,0,1,148.49,537h4.41a26.78,26.78,0,1,0,53.56,0h4.41A31.22,31.22,0,0,1,179.68,568.18Z" transform="translate(-10 -430)"></path>
</svg>