<svg xmlns="http://www.w3.org/2000/svg" xmlns:xlink="http://www.w3.org/1999/xlink" x="0px" y="0px" viewBox="0 0 155.9 155.9" style="enable-background: new 0 0 155.9 155.9" xml:space="preserve">
<style>.st0 {
  fill: #fff;
}

.st1 {
  fill: #1f3664;
}

.st2 {
  fill: #3bb4e6;
}

.st3 {
  fill: #4db076;
}

</style>
<path class="st0" d="M155.9,78c0,43.1-34.9,78-78,78S0,121,0,78S34.9,0,78,0S155.9,34.9,155.9,78"></path>
<polygon class="st1" points="7.9,87.6 7.3,81.8 8.7,81.7 9.1,86 11.3,85.8 10.9,82.4 12.3,82.2 12.7,85.7 15.9,85.4 16,86.8 "></polygon>
<rect x="7.3" y="78.5" transform="matrix(0.9998 -2.005429e-02 2.005429e-02 0.9998 -1.587 0.2438)" class="st1" width="8.2" height="1.5"></rect>
<path class="st1" d="M7.2,76l0.2-3.6c0.1-1.6,1.3-2.7,2.8-2.6c1.8,0.1,2.3,1.7,2.3,1.7l3.3-1.5l-0.1,1.6l-3,1.4l-0.1,1.8l2.9,0.2
	l-0.1,1.5L7.2,76z M11.4,72.7c0-0.7-0.4-1.3-1.2-1.3c-0.8-0.1-1.3,0.4-1.4,1.1l-0.1,2.1l2.6,0.2L11.4,72.7z"></path>
<polygon class="st1" points="8,67.2 9.1,61.3 10.5,61.6 9.7,66 11.5,66.4 12.2,62.9 13.6,63.2 12.9,66.6 15,67 15.8,62.5 17.2,62.8 
	16.1,68.7 "></polygon>
<polygon class="st1" points="9.4,59.5 9.9,58 16.1,58.3 11.2,54.5 11.7,53.2 17.9,53.4 13,49.6 13.5,48.2 20.3,53.5 19.8,54.9 
	13.7,54.6 18.6,58.4 18.1,59.7 "></polygon>
<path class="st1" d="M15.5,44.8l0.8-1.4l8.8,1.1l-0.7,1.3l-2.1-0.3l-1.7,3.1l1.4,1.6l-0.7,1.3L15.5,44.8z M20.7,45.3l-3.4-0.4
	l2.2,2.6L20.7,45.3z"></path>
<polygon class="st1" points="18.9,39 19.7,37.8 25.3,41.7 27.5,38.5 28.7,39.3 25.6,43.7 "></polygon>
<polygon class="st1" points="23.1,33.2 24,32.1 29.2,36.6 31.8,33.6 32.8,34.6 29.3,38.6 "></polygon>
<path class="st1" d="M27.7,29.1l-0.6,0.6l-0.4-0.4l1.6-1.6l0.4,0.4l-0.6,0.6l1.5,1.6l-0.5,0.4L27.7,29.1z M28.6,27.4L29,27l1.5,0.2
	l-0.2-1.5l0.4-0.4l1.9,2l-0.5,0.4L31,26.6l0.1,1.4l-1.4-0.2L31,29l-0.5,0.4L28.6,27.4z"></path>
<rect x="36.5" y="21.1" transform="matrix(0.7909 -0.612 0.612 0.7909 -7.6424 28.0434)" class="st1" width="1.5" height="8.2"></rect>
<path class="st1" d="M40.9,24.9c0,0,1.1,0.4,2.2-0.3c0.8-0.5,0.9-1.2,0.6-1.7c-0.9-1.4-4,1.7-5.6-0.8c-0.7-1-0.4-2.6,1.1-3.5
	c1.5-1,2.8-0.5,2.8-0.5l-0.3,1.4c0,0-0.9-0.3-1.8,0.3c-0.7,0.5-0.9,1.1-0.6,1.6c0.9,1.4,4-1.7,5.6,0.8c0.7,1.1,0.4,2.7-1.2,3.7
	c-1.7,1.1-3.3,0.6-3.3,0.6L40.9,24.9z"></path>
<path class="st1" d="M45.9,14.8l3.1-1.4c1.5-0.7,3.1-0.1,3.7,1.3c0.6,1.4,0.1,2.9-1.4,3.6l-1.8,0.8l1.2,2.6l-1.3,0.6L45.9,14.8z
	 M50.6,17.1c0.7-0.3,1-1.1,0.7-1.8c-0.3-0.7-1.1-1-1.8-0.7l-1.7,0.8l1.1,2.5L50.6,17.1z"></path>
<path class="st1" d="M53.5,11.4l3.4-1.1c1.6-0.5,3,0.2,3.4,1.7c0.6,1.7-0.7,2.8-0.7,2.8l2.6,2.5l-1.6,0.5l-2.5-2.3L56.6,16l0.9,2.8
	l-1.4,0.4L53.5,11.4z M58.1,14.1c0.7-0.2,1-0.9,0.8-1.6c-0.2-0.7-0.9-1.1-1.6-0.9l-2,0.6l0.8,2.5L58.1,14.1z"></path>
<path class="st1" d="M65.8,8c2.4-0.4,4.7,1.2,5.1,3.5c0.4,2.3-1.2,4.6-3.6,5c-2.4,0.4-4.7-1.2-5.1-3.5C61.8,10.7,63.4,8.5,65.8,8
	 M67,15.1c1.6-0.3,2.6-1.7,2.3-3.3c-0.3-1.6-1.7-2.6-3.3-2.3c-1.6,0.3-2.6,1.7-2.3,3.3C64,14.4,65.4,15.4,67,15.1"></path>
<polygon class="st1" points="71.3,7.4 72.8,7.3 75.5,13.6 77.7,7.1 79.2,7.1 76.4,15.4 74.7,15.5 "></polygon>
<polygon class="st1" points="81,7.2 87,7.7 86.8,9.1 82.4,8.7 82.2,10.6 85.8,10.9 85.6,12.3 82.1,12 82,14.1 86.5,14.5 86.4,15.9 
	80.4,15.4 "></polygon>
<polygon class="st1" points="89.4,8 90.8,8.3 93.8,14.8 95,9.2 96.4,9.5 94.7,17.5 93.4,17.3 90.3,10.8 89.1,16.4 87.7,16.1 "></polygon>
<path class="st1" d="M105.9,20.2c0,0-1.7,1.1-3.8,0.2c-2.3-0.9-3.3-3.5-2.5-5.6c0.9-2.2,3.4-3.2,5.7-2.3c2.1,0.9,2.5,2.8,2.5,2.8
	l-1.3,0.5c0,0-0.3-1.4-1.8-2c-1.5-0.6-3.2,0.1-3.8,1.6c-0.6,1.5,0.1,3.2,1.6,3.8c1.5,0.6,2.8-0.2,2.8-0.2L105.9,20.2z"></path>
<path class="st1" d="M113.8,16.7c2.1,1.2,2.8,3.9,1.6,5.9c-1.2,2-3.8,2.7-6,1.5c-2.1-1.2-2.8-3.9-1.6-5.9
	C109,16.1,111.7,15.4,113.8,16.7 M110.2,22.9c1.4,0.8,3.1,0.4,3.9-1c0.8-1.4,0.4-3.1-1-3.9c-1.4-0.8-3.1-0.4-3.9,1
	C108.3,20.4,108.7,22,110.2,22.9"></path>
<polygon class="st1" points="118.4,19.7 119.6,20.7 117.6,27.2 123.4,23.6 124.6,24.6 117.1,29.1 115.8,28.1 "></polygon>
<rect x="119.4" y="28.5" transform="matrix(0.6832 -0.7302 0.7302 0.6832 17.7467 99.4501)" class="st1" width="8.2" height="1.5"></rect>
<path class="st1" d="M128.8,28.6l1.9,2.2c1.6,1.8,1.5,4.4-0.2,5.9c-1.7,1.5-4.3,1.4-5.9-0.5l-1.9-2.2L128.8,28.6z M125.6,35.3
	c1.1,1.2,2.7,1.3,3.9,0.2c1.2-1.1,1.3-2.7,0.2-3.9l-0.9-1.1l-4.1,3.7L125.6,35.3z"></path>
<rect x="131.4" y="38.1" transform="matrix(0.8181 -0.5751 0.5751 0.8181 1.011 83.1951)" class="st1" width="1.2" height="3.8"></rect>
<path class="st1" d="M132.9,43.7c0,0-0.5,1.1,0.2,2.2c0.5,0.8,1.2,1,1.7,0.7c1.4-0.8-1.5-4,1.1-5.5c1.1-0.6,2.6-0.2,3.5,1.3
	c0.9,1.5,0.4,2.8,0.4,2.8l-1.4-0.4c0,0,0.4-0.9-0.2-1.8c-0.4-0.8-1.1-0.9-1.5-0.7c-1.4,0.8,1.5,4-1.1,5.5c-1.1,0.6-2.7,0.2-3.6-1.4
	c-1-1.8-0.4-3.3-0.4-3.3L132.9,43.7z"></path>
<polygon class="st1" points="141.7,47 144,52.4 142.8,53 141,48.9 139.2,49.7 140.7,52.9 139.4,53.5 138,50.2 136,51.1 137.9,55.3 
	136.6,55.8 134.1,50.3 "></polygon>
<path class="st1" d="M140.5,63.6c0,0-1.9-0.7-2.6-2.9c-0.7-2.4,0.6-4.8,2.9-5.4c2.3-0.7,4.7,0.6,5.4,3c0.7,2.2-0.6,3.7-0.6,3.7
	l-1.2-0.7c0,0,0.9-1.1,0.4-2.6c-0.5-1.5-2.1-2.4-3.6-1.9c-1.5,0.5-2.4,2.1-1.9,3.6c0.5,1.6,1.9,2,1.9,2L140.5,63.6z"></path>
<path class="st1" d="M147.3,63.6l0.2,1.5l-4.8,0.7c-1.2,0.2-2,1.2-1.8,2.4c0.2,1.2,1.2,1.9,2.4,1.7l4.8-0.7l0.2,1.5l-4.8,0.7
	c-2,0.3-3.7-0.9-4-2.9c-0.3-2,0.9-3.7,2.9-4L147.3,63.6z"></path>
<path class="st1" d="M148.6,73.4l0.1,3.6c0,1.6-1.1,2.8-2.6,2.8c-1.8,0-2.4-1.5-2.4-1.5l-3.1,1.8l0-1.6l2.9-1.7l0-1.8l-2.9,0.1
	l0-1.5L148.6,73.4z M144.8,77c0,0.7,0.6,1.2,1.3,1.2c0.8,0,1.3-0.6,1.3-1.3l0-2.1l-2.6,0.1L144.8,77z"></path>
<polygon class="st1" points="148.6,82.2 148,88.1 146.6,88 147.1,83.5 145.2,83.4 144.9,86.9 143.5,86.7 143.8,83.2 141.7,83 
	141.2,87.6 139.8,87.4 140.4,81.4 "></polygon>
<rect x="15.2" y="109" transform="matrix(0.8789 -0.477 0.477 0.8789 -49.9909 22.4843)" class="st1" width="8.2" height="1.5"></rect>
<polygon class="st1" points="24.1,110 24.8,111.1 22.5,117.8 27.2,114.6 28,115.9 21.2,120.5 20.5,119.3 22.8,112.6 18.1,115.8 
	17.2,114.6 "></polygon>
<path class="st1" d="M29.1,117.2l1.9,2.1c1.6,1.8,1.5,4.4-0.2,5.9c-1.7,1.5-4.3,1.4-5.9-0.5l-1.9-2.1L29.1,117.2z M25.9,123.9
	c1.1,1.2,2.7,1.3,3.9,0.2c1.2-1.1,1.3-2.7,0.2-3.9l-0.9-1.1l-4.1,3.7L25.9,123.9z"></path>
<polygon class="st1" points="34.8,123.3 39.2,127.2 38.3,128.3 34.9,125.3 33.7,126.7 36.4,129.1 35.4,130.1 32.8,127.8 31.4,129.4 
	34.8,132.4 33.9,133.5 29.4,129.5 "></polygon>
<path class="st1" d="M40.3,128l2.8,1.9c1.4,0.9,1.7,2.6,0.8,3.8c-0.9,1.3-2.5,1.6-3.9,0.6l-1.6-1.1l-1.6,2.3l-1.2-0.8L40.3,128z
	 M40.8,133.2c0.6,0.4,1.4,0.3,1.9-0.4c0.4-0.6,0.3-1.4-0.4-1.9l-1.6-1.1l-1.5,2.2L40.8,133.2z"></path>
<polygon class="st1" points="46.3,132 51.5,134.8 50.9,136 46.9,133.9 46.1,135.6 49.2,137.2 48.5,138.5 45.4,136.8 44.4,138.7 
	48.5,140.9 47.8,142.1 42.5,139.3 "></polygon>
<polygon class="st1" points="52.7,135.3 54,135.8 56,142.6 58,137.3 59.4,137.8 56.5,145.5 55.2,145 53.2,138.2 51.2,143.5 
	49.8,143 "></polygon>
<path class="st1" d="M61,138.3l2.8,0.6c2.4,0.5,3.8,2.7,3.3,4.9c-0.5,2.2-2.7,3.6-5.1,3.1l-2.8-0.6L61,138.3z M62.3,145.6
	c1.5,0.3,2.9-0.5,3.3-2.1c0.3-1.5-0.5-3-2.1-3.3l-1.4-0.3l-1.2,5.4L62.3,145.6z"></path>
<polygon class="st1" points="69.1,140 75,140.5 74.9,141.9 70.5,141.5 70.3,143.4 73.8,143.7 73.7,145.1 70.1,144.8 69.9,146.9 
	74.5,147.3 74.4,148.7 68.3,148.1 "></polygon>
<polygon class="st1" points="76.3,140.6 77.7,140.6 82.2,146.1 82,140.4 83.4,140.4 83.7,148.6 82.4,148.6 77.9,143.1 78.1,148.8 
	76.6,148.8 "></polygon>
<polygon class="st1" points="86.8,141.3 84.4,141.7 84.2,140.3 90.4,139.4 90.6,140.8 88.3,141.1 89.3,147.9 87.8,148.1 "></polygon>
<polygon class="st1" points="91.2,139.2 92.7,138.8 94.3,145.4 98.1,144.4 98.5,145.8 93.2,147.1 "></polygon>
<polygon class="st1" points="99.9,142.2 95.2,138.2 96.9,137.7 100.1,140.6 100.2,140.5 100.9,136.2 102.5,135.7 101.3,141.7 
	102.3,144.5 100.9,144.9 "></polygon>
<polygon class="st1" points="107.1,134.9 105,136.1 104.3,134.8 109.9,131.9 110.5,133.1 108.4,134.3 111.6,140.3 110.3,141 "></polygon>
<polygon class="st1" points="110.5,131.5 115.5,128.2 116.3,129.3 112.6,131.8 113.6,133.4 116.5,131.4 117.3,132.6 114.4,134.5 
	115.6,136.3 119.4,133.7 120.2,134.9 115.1,138.3 "></polygon>
<path class="st1" d="M120.7,131.8c0,0,1.1,0.3,2.2-0.6c0.7-0.6,0.8-1.4,0.4-1.8c-1.1-1.3-3.7,2.1-5.7-0.1c-0.8-0.9-0.7-2.5,0.7-3.7
	c1.3-1.1,2.7-0.9,2.7-0.9l-0.1,1.4c0,0-0.9-0.2-1.8,0.5c-0.7,0.6-0.7,1.2-0.4,1.6c1.1,1.3,3.7-2.1,5.7,0.1c0.8,1,0.7,2.6-0.7,3.8
	c-1.6,1.3-3.2,1-3.2,1L120.7,131.8z"></path>
<polygon class="st1" points="123.6,122.9 121.9,124.6 120.9,123.6 125.2,119.1 126.2,120.1 124.6,121.8 129.5,126.5 128.5,127.6 "></polygon>
<polygon class="st1" points="125.7,118.5 129.4,113.8 130.5,114.7 127.7,118.2 129.2,119.4 131.4,116.6 132.5,117.4 130.3,120.2 
	132,121.5 134.8,117.9 135.9,118.8 132.2,123.5 "></polygon>
<path class="st1" d="M130.1,112.7l1.5-2.5c1.3-2.1,3.8-2.8,5.7-1.6c2,1.2,2.6,3.7,1.3,5.8l-1.5,2.5L130.1,112.7z M137.5,113.8
	c0.8-1.4,0.4-3-1-3.8c-1.4-0.8-3-0.4-3.8,1l-0.7,1.2l4.7,2.8L137.5,113.8z"></path>
<path class="st1" d="M102.9,100.4c-7,11.8-21.5,20.1-25.7,22.4c-4.3-2.3-18.8-10.6-25.8-22.4h-6.3c0.3,0.5,0.5,1.1,0.8,1.6
	c8.7,16,29.2,26,30,26.4l1.2,0.6l1.2-0.6c0.9-0.4,21.3-10.4,30-26.4c0.3-0.5,0.5-1,0.8-1.6H102.9z"></path>
<path class="st2" d="M41.4,93.9c0,0,1.2,1.8,3.9,1.8c2.1,0,3.3-1.1,3.3-2.7c0-3.7-7.7-1.6-7.7-6.7c0-2.1,1.8-3.9,4.6-3.9
	c2.7,0,4.2,1.8,4.2,1.8l-1,1c0,0-1-1.4-3.2-1.4c-2,0-3.1,1.2-3.1,2.4c0,3.7,7.7,1.6,7.7,6.7c0,2.3-1.7,4.1-4.8,4.1
	c-3.3,0-4.8-2.1-4.8-2.1L41.4,93.9z"></path>
<polygon class="st2" points="52.2,82.7 62,82.7 62,84.1 53.8,84.1 53.8,88.8 60.4,88.8 60.4,90.2 53.8,90.2 53.8,95.5 62.2,95.5 
	62.2,96.9 52.2,96.9 "></polygon>
<path class="st2" d="M76.2,94.2c0,0-2,3-5.9,3c-4.1,0-7.3-3.3-7.3-7.3c0-4.1,3.3-7.3,7.3-7.3c3.9,0,5.8,3,5.8,3l-1,0.9
	c0,0-1.5-2.4-4.8-2.4c-3.3,0-5.8,2.5-5.8,5.9s2.5,5.9,5.8,5.9c3.3,0,4.9-2.4,4.9-2.4L76.2,94.2z"></path>
<path class="st2" d="M77.9,82.7h1.5v8.7c0,2.5,1.8,4.4,4.3,4.4s4.3-1.8,4.3-4.4v-8.7h1.5v8.7c0,3.3-2.5,5.8-5.8,5.8
	c-3.3,0-5.8-2.5-5.8-5.8V82.7z"></path>
<path class="st2" d="M92.6,82.7h5.7c2.5,0,4.4,1.8,4.4,4.3c0,3.3-3,4.1-3,4.1l3.4,5.9h-1.7l-3.2-5.7h-4.1v5.7h-1.5V82.7z M98.3,89.8
	c1.7,0,2.9-1.1,2.9-2.9c0-1.7-1.1-2.9-2.9-2.9h-4.2v5.7H98.3z"></path>
<polygon class="st2" points="105.3,82.7 115.1,82.7 115.1,84.1 106.8,84.1 106.8,88.8 113.5,88.8 113.5,90.2 106.8,90.2 106.8,95.5 
	115.3,95.5 115.3,96.9 105.3,96.9 "></polygon>
<path class="st1" d="M50.8,75.4c0,0-2.7,3.7-8,3.7c-5.7,0-10.1-4.4-10.1-9.7c0-5.3,4.4-9.7,10.1-9.7c5.2,0,7.8,3.7,7.8,3.7l-2.7,2.7
	c0,0-1.9-2.7-5.2-2.7c-3.3,0-6,2.7-6,6c0,3.3,2.7,6,6,6c3.5,0,5.3-2.7,5.3-2.7L50.8,75.4z"></path>
<path class="st1" d="M60.8,59.7c5.7,0,10.1,4.4,10.1,9.7c0,5.3-4.4,9.7-10.1,9.7c-5.7,0-10.1-4.4-10.1-9.7
	C50.7,64.1,55.1,59.7,60.8,59.7 M60.8,75.4c3.3,0,6-2.7,6-6c0-3.3-2.7-6-6-6c-3.3,0-6,2.7-6,6C54.8,72.8,57.5,75.4,60.8,75.4"></path>
<rect x="100.1" y="60.1" class="st1" width="4" height="18.6"></rect>
<path class="st1" d="M106.6,60.1h6.8c5.7,0,9.8,4.1,9.8,9.3s-4.1,9.3-9.8,9.3h-6.8V60.1z M113.4,75c3.3,0,5.7-2.4,5.7-5.6
	c0-3.2-2.4-5.6-5.7-5.6h-2.8V75H113.4z"></path>
<path class="st1" d="M121.2,48.9c-0.5-0.3-7.1-4.2-16-7.8l-3.4,4.6c6.7,2.7,12.3,5.6,14.9,7c-0.2,1.1-0.5,2.5-0.8,4.3
	c2,0.4,3.7,1.1,5.2,2.1c0.8-4.2,1.3-7.1,1.4-7.5l0.3-1.9L121.2,48.9z"></path>
<path class="st1" d="M98.2,44.4l3.5-4.7c-7.6-2.8-16.4-5.2-24.5-5.2c-19.5,0-43.1,13.9-44.1,14.5l-1.6,1l0.3,1.9
	c0.1,0.4,0.6,3.7,1.6,8.6c1.4-1.4,3.1-2.5,5-3.1c-0.4-1.8-0.6-3.4-0.8-4.4C43.2,49.7,62,40,77.2,40C83.9,40,91.5,42,98.2,44.4"></path>
<polygon class="st3" points="67.3,58 73.6,57.9 83.1,70.7 105.3,41.1 110,43.2 83.1,79.2 "></polygon>
<path class="st2" d="M138.6,105.7c0,0-0.1,0-0.1,0c-0.2-0.1-0.2-0.3-0.2-0.4c1.6-3.5,2.8-7.1,3.8-10.7c0.3-1.3,0.6-2.6,0.9-3.9
	c0-0.2,0.2-0.3,0.4-0.3c0.2,0,0.3,0.2,0.3,0.4c-0.3,1.3-0.6,2.6-0.9,3.9c-1,3.7-2.2,7.4-3.8,10.9
	C138.9,105.6,138.8,105.7,138.6,105.7"></path>
<path class="st2" d="M17.3,105.7c-0.1,0-0.3-0.1-0.3-0.2c-2.1-4.7-3.7-9.7-4.7-14.8c0-0.2,0.1-0.4,0.3-0.4c0.2,0,0.4,0.1,0.4,0.3
	c1,5,2.5,10,4.7,14.6c0.1,0.2,0,0.4-0.2,0.4C17.4,105.7,17.4,105.7,17.3,105.7"></path>
</svg>
