<svg xmlns="http://www.w3.org/2000/svg" viewBox="0 0 155.9 155.9" style="enable-background:new 0 0 155.9 155.9" xml:space="preserve"><style>.st1{fill:#1f3664}.st2{fill:#3bb4e6}</style><path d="M155.9 78c0 43.1-34.9 78-78 78S0 121 0 78 34.9 0 78 0s77.9 34.9 77.9 78" style="fill:#fff"/><path class="st1" d="m7.9 87.6-.6-5.8 1.4-.1.4 4.3 2.2-.2-.4-3.4 1.4-.2.4 3.5 3.2-.3.1 1.4zM7.286 78.582l8.198-.165.03 1.5-8.198.164zM7.2 76l.2-3.6c.1-1.6 1.3-2.7 2.8-2.6 1.8.1 2.3 1.7 2.3 1.7l3.3-1.5-.1 1.6-3 1.4-.1 1.8 2.9.2-.1 1.5-8.2-.5zm4.2-3.3c0-.7-.4-1.3-1.2-1.3-.8-.1-1.3.4-1.4 1.1l-.1 2.1 2.6.2.1-2.1zM8 67.2l1.1-5.9 1.4.3-.8 4.4 1.8.4.7-3.5 1.4.3-.7 3.4 2.1.4.8-4.5 1.4.3-1.1 5.9zM9.4 59.5l.5-1.5 6.2.3-4.9-3.8.5-1.3 6.2.2-4.9-3.8.5-1.4 6.8 5.3-.5 1.4-6.1-.3 4.9 3.8-.5 1.3zM15.5 44.8l.8-1.4 8.8 1.1-.7 1.3-2.1-.3-1.7 3.1 1.4 1.6-.7 1.3-5.8-6.7zm5.2.5-3.4-.4 2.2 2.6 1.2-2.2zM18.9 39l.8-1.2 5.6 3.9 2.2-3.2 1.2.8-3.1 4.4zM23.1 33.2l.9-1.1 5.2 4.5 2.6-3 1 1-3.5 4zM27.7 29.1l-.6.6-.4-.4 1.6-1.6.4.4-.6.6 1.5 1.6-.5.4-1.4-1.6zm.9-1.7.4-.4 1.5.2-.2-1.5.4-.4 1.9 2-.5.4-1.1-1.1.1 1.4-1.4-.2L31 29l-.5.4-1.9-2zM34.139 22.393l1.186-.918 5.018 6.486-1.186.918zM40.9 24.9s1.1.4 2.2-.3c.8-.5.9-1.2.6-1.7-.9-1.4-4 1.7-5.6-.8-.7-1-.4-2.6 1.1-3.5 1.5-1 2.8-.5 2.8-.5l-.3 1.4s-.9-.3-1.8.3c-.7.5-.9 1.1-.6 1.6.9 1.4 4-1.7 5.6.8.7 1.1.4 2.7-1.2 3.7-1.7 1.1-3.3.6-3.3.6l.5-1.6zM45.9 14.8l3.1-1.4c1.5-.7 3.1-.1 3.7 1.3.6 1.4.1 2.9-1.4 3.6l-1.8.8 1.2 2.6-1.3.6-3.5-7.5zm4.7 2.3c.7-.3 1-1.1.7-1.8-.3-.7-1.1-1-1.8-.7l-1.7.8 1.1 2.5 1.7-.8zM53.5 11.4l3.4-1.1c1.6-.5 3 .2 3.4 1.7.6 1.7-.7 2.8-.7 2.8l2.6 2.5-1.6.5-2.5-2.3-1.5.5.9 2.8-1.4.4-2.6-7.8zm4.6 2.7c.7-.2 1-.9.8-1.6-.2-.7-.9-1.1-1.6-.9l-2 .6.8 2.5 2-.6zM65.8 8c2.4-.4 4.7 1.2 5.1 3.5.4 2.3-1.2 4.6-3.6 5-2.4.4-4.7-1.2-5.1-3.5-.4-2.3 1.2-4.5 3.6-5m1.2 7.1c1.6-.3 2.6-1.7 2.3-3.3-.3-1.6-1.7-2.6-3.3-2.3-1.6.3-2.6 1.7-2.3 3.3.3 1.6 1.7 2.6 3.3 2.3M71.3 7.4l1.5-.1 2.7 6.3 2.2-6.5h1.5l-2.8 8.3-1.7.1zM81 7.2l6 .5-.2 1.4-4.4-.4-.2 1.9 3.6.3-.2 1.4-3.5-.3-.1 2.1 4.5.4-.1 1.4-6-.5zM89.4 8l1.4.3 3 6.5L95 9.2l1.4.3-1.7 8-1.3-.2-3.1-6.5-1.2 5.6-1.4-.3zM105.9 20.2s-1.7 1.1-3.8.2c-2.3-.9-3.3-3.5-2.5-5.6.9-2.2 3.4-3.2 5.7-2.3 2.1.9 2.5 2.8 2.5 2.8l-1.3.5s-.3-1.4-1.8-2c-1.5-.6-3.2.1-3.8 1.6-.6 1.5.1 3.2 1.6 3.8 1.5.6 2.8-.2 2.8-.2l.6 1.2zM113.8 16.7c2.1 1.2 2.8 3.9 1.6 5.9-1.2 2-3.8 2.7-6 1.5-2.1-1.2-2.8-3.9-1.6-5.9 1.2-2.1 3.9-2.8 6-1.5m-3.6 6.2c1.4.8 3.1.4 3.9-1 .8-1.4.4-3.1-1-3.9-1.4-.8-3.1-.4-3.9 1-.9 1.4-.5 3 1 3.9M118.4 19.7l1.2 1-2 6.5 5.8-3.6 1.2 1-7.5 4.5-1.3-1zM120.131 31.735l5.603-5.987 1.095 1.025-5.602 5.987zM128.8 28.6l1.9 2.2c1.6 1.8 1.5 4.4-.2 5.9s-4.3 1.4-5.9-.5l-1.9-2.2 6.1-5.4zm-3.2 6.7c1.1 1.2 2.7 1.3 3.9.2 1.2-1.1 1.3-2.7.2-3.9l-.9-1.1-4.1 3.7.9 1.1zM130.42 38.797l.982-.69 2.186 3.108-.982.69zM132.9 43.7s-.5 1.1.2 2.2c.5.8 1.2 1 1.7.7 1.4-.8-1.5-4 1.1-5.5 1.1-.6 2.6-.2 3.5 1.3.9 1.5.4 2.8.4 2.8l-1.4-.4s.4-.9-.2-1.8c-.4-.8-1.1-.9-1.5-.7-1.4.8 1.5 4-1.1 5.5-1.1.6-2.7.2-3.6-1.4-1-1.8-.4-3.3-.4-3.3l1.3.6zM141.7 47l2.3 5.4-1.2.6-1.8-4.1-1.8.8 1.5 3.2-1.3.6-1.4-3.3-2 .9 1.9 4.2-1.3.5-2.5-5.5zM140.5 63.6s-1.9-.7-2.6-2.9c-.7-2.4.6-4.8 2.9-5.4 2.3-.7 4.7.6 5.4 3 .7 2.2-.6 3.7-.6 3.7l-1.2-.7s.9-1.1.4-2.6-2.1-2.4-3.6-1.9-2.4 2.1-1.9 3.6c.5 1.6 1.9 2 1.9 2l-.7 1.2zM147.3 63.6l.2 1.5-4.8.7c-1.2.2-2 1.2-1.8 2.4.2 1.2 1.2 1.9 2.4 1.7l4.8-.7.2 1.5-4.8.7c-2 .3-3.7-.9-4-2.9-.3-2 .9-3.7 2.9-4l4.9-.9zM148.6 73.4l.1 3.6c0 1.6-1.1 2.8-2.6 2.8-1.8 0-2.4-1.5-2.4-1.5l-3.1 1.8v-1.6l2.9-1.7V75l-2.9.1v-1.5l8-.2zm-3.8 3.6c0 .7.6 1.2 1.3 1.2.8 0 1.3-.6 1.3-1.3v-2.1l-2.6.1V77zM148.6 82.2l-.6 5.9-1.4-.1.5-4.5-1.9-.1-.3 3.5-1.4-.2.3-3.5-2.1-.2-.5 4.6-1.4-.2.6-6zM15.361 111.034l7.207-3.911.716 1.318-7.207 3.911zM24.1 110l.7 1.1-2.3 6.7 4.7-3.2.8 1.3-6.8 4.6-.7-1.2 2.3-6.7-4.7 3.2-.9-1.2zM29.1 117.2l1.9 2.1c1.6 1.8 1.5 4.4-.2 5.9s-4.3 1.4-5.9-.5l-1.9-2.1 6.1-5.4zm-3.2 6.7c1.1 1.2 2.7 1.3 3.9.2 1.2-1.1 1.3-2.7.2-3.9l-.9-1.1-4.1 3.7.9 1.1zM34.8 123.3l4.4 3.9-.9 1.1-3.4-3-1.2 1.4 2.7 2.4-1 1-2.6-2.3-1.4 1.6 3.4 3-.9 1.1-4.5-4zM40.3 128l2.8 1.9c1.4.9 1.7 2.6.8 3.8-.9 1.3-2.5 1.6-3.9.6l-1.6-1.1-1.6 2.3-1.2-.8 4.7-6.7zm.5 5.2c.6.4 1.4.3 1.9-.4.4-.6.3-1.4-.4-1.9l-1.6-1.1-1.5 2.2 1.6 1.2zM46.3 132l5.2 2.8-.6 1.2-4-2.1-.8 1.7 3.1 1.6-.7 1.3-3.1-1.7-1 1.9 4.1 2.2-.7 1.2-5.3-2.8zM52.7 135.3l1.3.5 2 6.8 2-5.3 1.4.5-2.9 7.7-1.3-.5-2-6.8-2 5.3-1.4-.5zM61 138.3l2.8.6c2.4.5 3.8 2.7 3.3 4.9s-2.7 3.6-5.1 3.1l-2.8-.6 1.8-8zm1.3 7.3c1.5.3 2.9-.5 3.3-2.1.3-1.5-.5-3-2.1-3.3l-1.4-.3-1.2 5.4 1.4.3zM69.1 140l5.9.5-.1 1.4-4.4-.4-.2 1.9 3.5.3-.1 1.4-3.6-.3-.2 2.1 4.6.4-.1 1.4-6.1-.6zM76.3 140.6h1.4l4.5 5.5-.2-5.7h1.4l.3 8.2h-1.3l-4.5-5.5.2 5.7h-1.5zM86.8 141.3l-2.4.4-.2-1.4 6.2-.9.2 1.4-2.3.3 1 6.8-1.5.2zM91.2 139.2l1.5-.4 1.6 6.6 3.8-1 .4 1.4-5.3 1.3zM99.9 142.2l-4.7-4 1.7-.5 3.2 2.9.1-.1.7-4.3 1.6-.5-1.2 6 1 2.8-1.4.4zM107.1 134.9l-2.1 1.2-.7-1.3 5.6-2.9.6 1.2-2.1 1.2 3.2 6-1.3.7zM110.5 131.5l5-3.3.8 1.1-3.7 2.5 1 1.6 2.9-2 .8 1.2-2.9 1.9 1.2 1.8 3.8-2.6.8 1.2-5.1 3.4zM120.7 131.8s1.1.3 2.2-.6c.7-.6.8-1.4.4-1.8-1.1-1.3-3.7 2.1-5.7-.1-.8-.9-.7-2.5.7-3.7 1.3-1.1 2.7-.9 2.7-.9l-.1 1.4s-.9-.2-1.8.5c-.7.6-.7 1.2-.4 1.6 1.1 1.3 3.7-2.1 5.7.1.8 1 .7 2.6-.7 3.8-1.6 1.3-3.2 1-3.2 1l.2-1.3zM123.6 122.9l-1.7 1.7-1-1 4.3-4.5 1 1-1.6 1.7 4.9 4.7-1 1.1zM125.7 118.5l3.7-4.7 1.1.9-2.8 3.5 1.5 1.2 2.2-2.8 1.1.8-2.2 2.8 1.7 1.3 2.8-3.6 1.1.9-3.7 4.7zM130.1 112.7l1.5-2.5c1.3-2.1 3.8-2.8 5.7-1.6 2 1.2 2.6 3.7 1.3 5.8l-1.5 2.5-7-4.2zm7.4 1.1c.8-1.4.4-3-1-3.8-1.4-.8-3-.4-3.8 1l-.7 1.2 4.7 2.8.8-1.2zM102.9 100.4c-7 11.8-21.5 20.1-25.7 22.4-4.3-2.3-18.8-10.6-25.8-22.4h-6.3c.3.5.5 1.1.8 1.6 8.7 16 29.2 26 30 26.4l1.2.6 1.2-.6c.9-.4 21.3-10.4 30-26.4.3-.5.5-1 .8-1.6h-6.2z"/><path class="st2" d="M41.4 93.9s1.2 1.8 3.9 1.8c2.1 0 3.3-1.1 3.3-2.7 0-3.7-7.7-1.6-7.7-6.7 0-2.1 1.8-3.9 4.6-3.9 2.7 0 4.2 1.8 4.2 1.8l-1 1s-1-1.4-3.2-1.4c-2 0-3.1 1.2-3.1 2.4 0 3.7 7.7 1.6 7.7 6.7 0 2.3-1.7 4.1-4.8 4.1-3.3 0-4.8-2.1-4.8-2.1l.9-1zM52.2 82.7H62v1.4h-8.2v4.7h6.6v1.4h-6.6v5.3h8.4v1.4h-10zM76.2 94.2s-2 3-5.9 3c-4.1 0-7.3-3.3-7.3-7.3 0-4.1 3.3-7.3 7.3-7.3 3.9 0 5.8 3 5.8 3l-1 .9s-1.5-2.4-4.8-2.4-5.8 2.5-5.8 5.9 2.5 5.9 5.8 5.9 4.9-2.4 4.9-2.4l1 .7zM77.9 82.7h1.5v8.7c0 2.5 1.8 4.4 4.3 4.4S88 94 88 91.4v-8.7h1.5v8.7c0 3.3-2.5 5.8-5.8 5.8s-5.8-2.5-5.8-5.8v-8.7zM92.6 82.7h5.7c2.5 0 4.4 1.8 4.4 4.3 0 3.3-3 4.1-3 4.1l3.4 5.9h-1.7l-3.2-5.7h-4.1V97h-1.5V82.7zm5.7 7.1c1.7 0 2.9-1.1 2.9-2.9 0-1.7-1.1-2.9-2.9-2.9h-4.2v5.7h4.2zM105.3 82.7h9.8v1.4h-8.3v4.7h6.7v1.4h-6.7v5.3h8.5v1.4h-10z"/><path class="st1" d="M50.8 75.4s-2.7 3.7-8 3.7c-5.7 0-10.1-4.4-10.1-9.7 0-5.3 4.4-9.7 10.1-9.7 5.2 0 7.8 3.7 7.8 3.7l-2.7 2.7s-1.9-2.7-5.2-2.7c-3.3 0-6 2.7-6 6s2.7 6 6 6c3.5 0 5.3-2.7 5.3-2.7l2.8 2.7z"/><path class="st1" d="M60.8 59.7c5.7 0 10.1 4.4 10.1 9.7 0 5.3-4.4 9.7-10.1 9.7-5.7 0-10.1-4.4-10.1-9.7 0-5.3 4.4-9.7 10.1-9.7m0 15.7c3.3 0 6-2.7 6-6s-2.7-6-6-6-6 2.7-6 6c0 3.4 2.7 6 6 6M100.1 60.1h4v18.6h-4zM106.6 60.1h6.8c5.7 0 9.8 4.1 9.8 9.3s-4.1 9.3-9.8 9.3h-6.8V60.1zm6.8 14.9c3.3 0 5.7-2.4 5.7-5.6 0-3.2-2.4-5.6-5.7-5.6h-2.8V75h2.8zM121.2 48.9c-.5-.3-7.1-4.2-16-7.8l-3.4 4.6c6.7 2.7 12.3 5.6 14.9 7-.2 1.1-.5 2.5-.8 4.3 2 .4 3.7 1.1 5.2 2.1.8-4.2 1.3-7.1 1.4-7.5l.3-1.9-1.6-.8zM98.2 44.4l3.5-4.7c-7.6-2.8-16.4-5.2-24.5-5.2-19.5 0-43.1 13.9-44.1 14.5l-1.6 1 .3 1.9c.1.4.6 3.7 1.6 8.6 1.4-1.4 3.1-2.5 5-3.1-.4-1.8-.6-3.4-.8-4.4 5.6-3.3 24.4-13 39.6-13 6.7 0 14.3 2 21 4.4"/><path style="fill:#4db076" d="m67.3 58 6.3-.1 9.5 12.8 22.2-29.6 4.7 2.1-26.9 36z"/><path class="st2" d="M138.6 105.7h-.1c-.2-.1-.2-.3-.2-.4 1.6-3.5 2.8-7.1 3.8-10.7l.9-3.9c0-.2.2-.3.4-.3s.3.2.3.4l-.9 3.9c-1 3.7-2.2 7.4-3.8 10.9-.1 0-.2.1-.4.1M17.3 105.7c-.1 0-.3-.1-.3-.2-2.1-4.7-3.7-9.7-4.7-14.8 0-.2.1-.4.3-.4.2 0 .4.1.4.3 1 5 2.5 10 4.7 14.6.1.2 0 .4-.2.4-.1.1-.1.1-.2.1"/></svg>