<svg xmlns="http://www.w3.org/2000/svg" viewBox="0 0 433.3 491" style="enable-background:new 0 0 433.3 491" xml:space="preserve"><style>.st0{fill:none}.st1{fill:#45ab34}</style><path class="st0" d="m378.1 244.5 1 2M212.9 354.6l1.3 2.7"/><path class="st1" d="M234.3 0c-5.2 40.6-21.3 91 16.2 136.5 31.5 38.2 74.8 40.2 80.4 40.3 63.7 72.7 59.2 183.7-11.6 250.8-35.1 33.3-81.1 50.9-129.4 49.6-48.4-1.3-93.3-21.3-126.6-56.4-68.7-72.5-65.8-187.3 6.8-256 37.3-35.4 88.2-53.3 139.6-49.1 3.8.3 7.1-2.5 7.4-6.3.3-3.8-2.5-7.1-6.3-7.4-55.2-4.5-110 14.7-150.2 52.8-77.9 74.1-81.3 197.5-7.3 275.5 35.8 37.8 84.2 59.3 136.2 60.7 52 1.4 101.5-17.6 139.3-53.4 1.3-1.2 2.5-2.4 3.8-3.7 72.6-72.6 76.1-189.6 8.4-266.4 2.8-17.6 11.2-50.9-13.5-83.7-33.8-44.8-74-40-93.2-83.8zm45 97.4c22.1 34.3 31.7 46.1 47.8 66.9 0 0-36.1-28-60-65.1-21.5-33.4-26.8-73.3-26.8-73.3s15.7 35.3 39 71.5z"/><path class="st1" d="M338.8 181.2c12.8-1.6 37.5-2.5 55.3-26.2 24.3-32.5 12.8-59.4 39.3-81.5-37.7-6.9-74.4 9-91.4 38.7-17.5 30.6-6.6 62.9-4.7 68.2m37.6-56.1c-19.4 22.2-25.6 31.3-36.7 46.6 0 0 12.1-30.7 33.1-54.7 18.8-21.6 45.5-33.3 45.5-33.3s-21.5 17.9-41.9 41.4zM197 285.8c-4.1 4.9-9.9 8.7-17.4 11.5-7.5 2.7-15.8 4.1-25 4.1-9.6 0-18-2.1-25.2-6.3-7.2-4.2-12.8-10.3-16.7-18.2-3.9-8-5.9-17.3-6-28.1v-7.5c0-11.1 1.9-20.6 5.6-28.7 3.7-8.1 9.1-14.3 16.1-18.6 7-4.3 15.3-6.4 24.7-6.4 13.1 0 23.4 3.1 30.8 9.4 7.4 6.3 11.8 15.4 13.2 27.4h-22.2c-1-6.3-3.3-11-6.7-13.9-3.5-2.9-8.3-4.4-14.3-4.4-7.8 0-13.7 2.9-17.7 8.8-4.1 5.8-6.1 14.5-6.2 26v7.1c0 11.6 2.2 20.4 6.6 26.3 4.4 5.9 10.9 8.9 19.4 8.9 8.6 0 14.7-1.8 18.3-5.5v-19.1h-20.8v-16.8H197v44zM210.6 257.9c0-8.2 1.6-15.4 4.7-21.8s7.7-11.3 13.6-14.8c5.9-3.5 12.8-5.2 20.6-5.2 11.1 0 20.2 3.4 27.2 10.2 7 6.8 10.9 16 11.8 27.7l.2 5.6c0 12.6-3.5 22.8-10.6 30.4s-16.5 11.5-28.4 11.5c-11.9 0-21.3-3.8-28.4-11.4-7.1-7.6-10.6-18-10.6-31v-1.2zm22 1.6c0 7.8 1.5 13.8 4.4 17.9 2.9 4.1 7.2 6.2 12.6 6.2 5.3 0 9.5-2 12.5-6.1s4.5-10.6 4.5-19.6c0-7.7-1.5-13.6-4.5-17.8-3-4.2-7.2-6.3-12.6-6.3-5.4 0-9.5 2.1-12.5 6.3-3 4.1-4.4 10.6-4.4 19.4zM67.6 359c0-8.4 2-15.1 6-20.2s9.3-7.7 16.1-7.7c6 0 10.6 2 14 6.1l.6-5.1h13.2v52.7c0 4.8-1.1 8.9-3.2 12.4-2.2 3.5-5.2 6.2-9.1 8.1-3.9 1.8-8.5 2.8-13.8 2.8-4 0-7.9-.8-11.7-2.4-3.8-1.6-6.7-3.7-8.6-6.2l6.4-8.9c3.6 4.1 8 6.1 13.2 6.1 3.9 0 6.9-1 9-3.1 2.1-2.1 3.2-5 3.2-8.8V382c-3.4 3.8-7.8 5.7-13.2 5.7-6.5 0-11.8-2.6-15.9-7.7-4-5.1-6.1-11.9-6.1-20.4v-.6zm14.5 1.1c0 4.9 1 8.8 3 11.6 2 2.8 4.7 4.2 8.2 4.2 4.4 0 7.6-1.7 9.5-5v-23c-1.9-3.3-5.1-5-9.4-5-3.5 0-6.2 1.4-8.2 4.3-2.1 2.9-3.1 7.2-3.1 12.9zM159.2 345.8c-2-.3-3.7-.4-5.2-.4-5.5 0-9.1 1.9-10.8 5.6v35.7h-14.6v-54.5h13.8l.4 6.5c2.9-5 7-7.5 12.1-7.5 1.6 0 3.1.2 4.5.7l-.2 13.9zM190.4 387.6c-8 0-14.5-2.5-19.5-7.4s-7.5-11.4-7.5-19.6v-1.4c0-5.5 1.1-10.4 3.2-14.7 2.1-4.3 5.1-7.6 9-10 3.9-2.3 8.3-3.5 13.3-3.5 7.5 0 13.3 2.4 17.6 7.1 4.3 4.7 6.4 11.4 6.4 20v5.9h-34.7c.5 3.6 1.9 6.4 4.3 8.6 2.4 2.1 5.4 3.2 9 3.2 5.6 0 10-2 13.1-6.1l7.2 8c-2.2 3.1-5.1 5.5-8.9 7.2-3.9 1.9-8 2.7-12.5 2.7zm-1.7-44.7c-2.9 0-5.2 1-7 2.9-1.8 2-2.9 4.8-3.5 8.4h20.3V353c-.1-3.2-.9-5.7-2.6-7.5s-4.1-2.6-7.2-2.6zM246.1 387.6c-8 0-14.5-2.5-19.5-7.4s-7.5-11.4-7.5-19.6v-1.4c0-5.5 1.1-10.4 3.2-14.7 2.1-4.3 5.1-7.6 9-10 3.9-2.3 8.3-3.5 13.3-3.5 7.5 0 13.3 2.4 17.6 7.1 4.3 4.7 6.4 11.4 6.4 20v5.9h-34.7c.5 3.6 1.9 6.4 4.3 8.6 2.4 2.1 5.4 3.2 9 3.2 5.6 0 10-2 13.1-6.1l7.2 8c-2.2 3.1-5.1 5.5-8.9 7.2-3.8 1.9-7.9 2.7-12.5 2.7zm-1.6-44.7c-2.9 0-5.2 1-7 2.9-1.8 2-2.9 4.8-3.5 8.4h20.3V353c-.1-3.2-.9-5.7-2.6-7.5s-4.2-2.6-7.2-2.6zM290.2 332.1l.5 6.3c3.9-4.9 9.1-7.3 15.7-7.3 5.8 0 10.1 1.7 12.9 5.1s4.3 8.5 4.3 15.2v35.2H309v-34.9c0-3.1-.7-5.3-2-6.7-1.3-1.4-3.6-2.1-6.7-2.1-4.1 0-7.2 1.7-9.2 5.2v38.4h-14.6V332h13.7z"/></svg>