<svg xmlns="http://www.w3.org/2000/svg" xmlns:xlink="http://www.w3.org/1999/xlink" x="0px" y="0px" viewBox="0 0 433.3 491" style="enable-background: new 0 0 433.3 491" xml:space="preserve">
	<style>.st0 {
  fill: none;
}

.st1 {
  fill: #45ab34;
}

</style>
	<g>
		<line class="st0" x1="378.1" y1="244.5" x2="379.1" y2="246.5"></line>
		<line class="st0" x1="212.9" y1="354.6" x2="214.2" y2="357.3"></line>
		<path class="st1" d="M234.3,0c-5.2,40.6-21.3,91,16.2,136.5c31.5,38.2,74.8,40.2,80.4,40.3c63.7,72.7,59.2,183.7-11.6,250.8
			c-35.1,33.3-81.1,50.9-129.4,49.6c-48.4-1.3-93.3-21.3-126.6-56.4c-68.7-72.5-65.8-187.3,6.8-256c37.3-35.4,88.2-53.3,139.6-49.1
			c3.8,0.3,7.1-2.5,7.4-6.3c0.3-3.8-2.5-7.1-6.3-7.4c-55.2-4.5-110,14.7-150.2,52.8c-77.9,74.1-81.3,197.5-7.3,275.5
			c35.8,37.8,84.2,59.3,136.2,60.7c52,1.4,101.5-17.6,139.3-53.4c1.3-1.2,2.5-2.4,3.8-3.7c72.6-72.6,76.1-189.6,8.4-266.4
			c2.8-17.6,11.2-50.9-13.5-83.7C293.7,39,253.5,43.8,234.3,0z M279.3,97.4c22.1,34.3,31.7,46.1,47.8,66.9c0,0-36.1-28-60-65.1
			c-21.5-33.4-26.8-73.3-26.8-73.3S256,61.2,279.3,97.4z"></path>
		<path class="st1" d="M338.8,181.2c12.8-1.6,37.5-2.5,55.3-26.2c24.3-32.5,12.8-59.4,39.3-81.5c-37.7-6.9-74.4,9-91.4,38.7
			c-17.5,30.6-6.6,62.9-4.7,68.2 M374.9,124.3c-19.4,22.2-25.6,31.3-36.7,46.6c0,0,12.1-30.7,33.1-54.7
			c18.8-21.6,45.5-33.3,45.5-33.3S395.3,100.8,374.9,124.3z"></path>
		<g>
			<path class="st1" d="M197,285.8c-4.1,4.9-9.9,8.7-17.4,11.5c-7.5,2.7-15.8,4.1-25,4.1c-9.6,0-18-2.1-25.2-6.3
				c-7.2-4.2-12.8-10.3-16.7-18.2c-3.9-8-5.9-17.3-6-28.1v-7.5c0-11.1,1.9-20.6,5.6-28.7c3.7-8.1,9.1-14.3,16.1-18.6
				c7-4.3,15.3-6.4,24.7-6.4c13.1,0,23.4,3.1,30.8,9.4c7.4,6.3,11.8,15.4,13.2,27.4h-22.2c-1-6.3-3.3-11-6.7-13.9
				c-3.5-2.9-8.3-4.4-14.3-4.4c-7.8,0-13.7,2.9-17.7,8.8c-4.1,5.8-6.1,14.5-6.2,26v7.1c0,11.6,2.2,20.4,6.6,26.3
				c4.4,5.9,10.9,8.9,19.4,8.9c8.6,0,14.7-1.8,18.3-5.5v-19.1h-20.8v-16.8H197V285.8z"></path>
			<path class="st1" d="M210.6,257.9c0-8.2,1.6-15.4,4.7-21.8c3.1-6.4,7.7-11.3,13.6-14.8c5.9-3.5,12.8-5.2,20.6-5.2
				c11.1,0,20.2,3.4,27.2,10.2c7,6.8,10.9,16,11.8,27.7l0.2,5.6c0,12.6-3.5,22.8-10.6,30.4s-16.5,11.5-28.4,11.5
				c-11.9,0-21.3-3.8-28.4-11.4c-7.1-7.6-10.6-18-10.6-31V257.9z M232.6,259.5c0,7.8,1.5,13.8,4.4,17.9c2.9,4.1,7.2,6.2,12.6,6.2
				c5.3,0,9.5-2,12.5-6.1c3-4.1,4.5-10.6,4.5-19.6c0-7.7-1.5-13.6-4.5-17.8c-3-4.2-7.2-6.3-12.6-6.3c-5.4,0-9.5,2.1-12.5,6.3
				C234,244.2,232.6,250.7,232.6,259.5z"></path>
			<path class="st1" d="M67.6,359c0-8.4,2-15.1,6-20.2c4-5.1,9.3-7.7,16.1-7.7c6,0,10.6,2,14,6.1l0.6-5.1h13.2v52.7
				c0,4.8-1.1,8.9-3.2,12.4c-2.2,3.5-5.2,6.2-9.1,8.1c-3.9,1.8-8.5,2.8-13.8,2.8c-4,0-7.9-0.8-11.7-2.4c-3.8-1.6-6.7-3.7-8.6-6.2
				l6.4-8.9c3.6,4.1,8,6.1,13.2,6.1c3.9,0,6.9-1,9-3.1c2.1-2.1,3.2-5,3.2-8.8V382c-3.4,3.8-7.8,5.7-13.2,5.7
				c-6.5,0-11.8-2.6-15.9-7.7c-4-5.1-6.1-11.9-6.1-20.4V359z M82.1,360.1c0,4.9,1,8.8,3,11.6c2,2.8,4.7,4.2,8.2,4.2
				c4.4,0,7.6-1.7,9.5-5v-23c-1.9-3.3-5.1-5-9.4-5c-3.5,0-6.2,1.4-8.2,4.3C83.1,350.1,82.1,354.4,82.1,360.1z"></path>
			<path class="st1" d="M159.2,345.8c-2-0.3-3.7-0.4-5.2-0.4c-5.5,0-9.1,1.9-10.8,5.6v35.7h-14.6v-54.5h13.8l0.4,6.5
				c2.9-5,7-7.5,12.1-7.5c1.6,0,3.1,0.2,4.5,0.7L159.2,345.8z"></path>
			<path class="st1" d="M190.4,387.6c-8,0-14.5-2.5-19.5-7.4c-5-4.9-7.5-11.4-7.5-19.6v-1.4c0-5.5,1.1-10.4,3.2-14.7
				c2.1-4.3,5.1-7.6,9-10c3.9-2.3,8.3-3.5,13.3-3.5c7.5,0,13.3,2.4,17.6,7.1c4.3,4.7,6.4,11.4,6.4,20v5.9h-34.7
				c0.5,3.6,1.9,6.4,4.3,8.6c2.4,2.1,5.4,3.2,9,3.2c5.6,0,10-2,13.1-6.1l7.2,8c-2.2,3.1-5.1,5.5-8.9,7.2
				C199,386.8,194.9,387.6,190.4,387.6z M188.7,342.9c-2.9,0-5.2,1-7,2.9c-1.8,2-2.9,4.8-3.5,8.4h20.3V353c-0.1-3.2-0.9-5.7-2.6-7.5
				S191.8,342.9,188.7,342.9z"></path>
			<path class="st1" d="M246.1,387.6c-8,0-14.5-2.5-19.5-7.4c-5-4.9-7.5-11.4-7.5-19.6v-1.4c0-5.5,1.1-10.4,3.2-14.7
				c2.1-4.3,5.1-7.6,9-10c3.9-2.3,8.3-3.5,13.3-3.5c7.5,0,13.3,2.4,17.6,7.1c4.3,4.7,6.4,11.4,6.4,20v5.9h-34.7
				c0.5,3.6,1.9,6.4,4.3,8.6c2.4,2.1,5.4,3.2,9,3.2c5.6,0,10-2,13.1-6.1l7.2,8c-2.2,3.1-5.1,5.5-8.9,7.2
				C254.8,386.8,250.7,387.6,246.1,387.6z M244.5,342.9c-2.9,0-5.2,1-7,2.9c-1.8,2-2.9,4.8-3.5,8.4h20.3V353
				c-0.1-3.2-0.9-5.7-2.6-7.5S247.5,342.9,244.5,342.9z"></path>
			<path class="st1" d="M290.2,332.1l0.5,6.3c3.9-4.9,9.1-7.3,15.7-7.3c5.8,0,10.1,1.7,12.9,5.1s4.3,8.5,4.3,15.2v35.2H309v-34.9
				c0-3.1-0.7-5.3-2-6.7c-1.3-1.4-3.6-2.1-6.7-2.1c-4.1,0-7.2,1.7-9.2,5.2v38.4h-14.6v-54.5H290.2z"></path>
		</g>
	</g>
</svg>
