<svg viewBox="0 0 1015 340" xmlns="http://www.w3.org/2000/svg">
  <path d="m2054.39 11h-890.39c-53.14 0-62 18.4-62 62.16v216.07c0 43.73 18.2 61.77 61.93 61.77h890.47c43.76 0 62.6-18.07 62.6-61.83v-216c0-43.77-18.85-62.17-62.61-62.17z" fill-rule="evenodd" transform="translate(-1102 -11)"></path>
  <path d="m1189.05 78.55a6 6 0 0 0 -4 5.67v198.3a6 6 0 0 0 4 5.66l105.34-104.85z" fill="#00d6ff" transform="translate(-1102 -11)"></path>
  <path d="m1324 153.8-130-74.8a5.89 5.89 0 0 0 -5-.46l105.28 104.78z" fill="#00f076" transform="translate(-1102 -11)"></path>
  <path d="m1194 287.73 130-74.81-29.73-29.59-105.27 104.85a6 6 0 0 0 5-.45z" fill="#ff3a44" transform="translate(-1102 -11)"></path>
  <path d="m1324.06 212.92 42.29-24.33a6 6 0 0 0 0-10.44l-42.35-24.35-29.68 29.53z" fill="#ffd000" transform="translate(-1102 -11)"></path>
  <g fill="#fff">
    <path d="m1603.76 205.9c-18.62 0-33.36 14-33.36 33.36a33.11 33.11 0 0 0 33.36 33.36c18.62 0 33.36-14 33.36-33.36 0-20.17-14.74-33.36-33.36-33.36zm0 52.75c-10.08 0-18.62-8.53-18.62-20.17s8.54-20.17 18.62-20.17 18.62 7.76 18.62 20.17c0 11.64-8.53 20.17-18.62 20.17zm-72.14-52.75c-18.62 0-33.36 14-33.36 33.36a33.11 33.11 0 0 0 33.36 33.36c18.62 0 33.35-14 33.35-33.36.03-20.17-14.73-33.36-33.35-33.36zm0 52.75c-10.09 0-18.62-8.53-18.62-20.17s8.53-20.17 18.62-20.17 18.62 7.76 18.62 20.17c0 11.64-8.54 20.17-18.62 20.17zm-86.11-42.65v14h33.36c-.78 7.76-3.88 14-7.76 17.84-4.65 4.66-12.41 10.09-25.6 10.09-20.94 0-36.46-16.29-36.46-37.24s16.29-37.23 36.46-37.23c10.86 0 19.4 4.65 25.6 10.08l10.09-10.08c-8.54-7.76-19.4-14-34.91-14-27.93 0-52 23.28-52 51.2s24 51.2 52 51.2c15.51 0 26.37-4.65 35.68-14.74 9.31-9.31 12.41-22.5 12.41-32.58 0-3.1 0-6.21-.77-8.53zm352.18 10.86c-3.1-7.76-10.86-20.95-27.92-20.95s-31 13.19-31 33.36c0 18.62 14 33.36 32.58 33.36 14.74 0 24-9.31 27.15-14.74l-10.86-7.76c-3.88 5.43-8.54 9.31-16.29 9.31s-12.41-3.11-16.29-10.09l44.21-18.61-1.55-3.88zm-45 10.86c0-12.41 10.08-19.4 17.07-19.4 5.43 0 10.86 3.11 12.41 7l-29.48 12.41zm-36.46 31.8h14.77v-97h-14.74zm-23.23-56.64a25.59 25.59 0 0 0 -17.84-7.75c-16.29 0-31.81 14.74-31.81 33.35a32.12 32.12 0 0 0 31.81 32.58 22.26 22.26 0 0 0 17.06-7.75h.78v4.69c0 12.41-7 19.39-17.84 19.39-8.54 0-14.74-6.2-16.29-11.63l-12.41 5.43c3.87 8.53 13.18 19.39 29.47 19.39 17.07 0 31-10.08 31-34.13v-59h-14v5.43zm-17.07 45.77c-10.08 0-18.61-8.53-18.61-20.17s8.53-20.17 18.61-20.17 17.85 8.54 17.85 20.17-7.78 20.17-17.88 20.17zm189.28-86.1h-34.91v97h14.7v-36.5h20.17c16.29 0 31.81-11.63 31.81-30.25s-15.51-30.25-31.8-30.25zm.78 46.54h-21v-33.36h21a17 17 0 0 1 17.01 16.27c-.77 8.54-7 17.07-17.06 17.07zm89.2-14c-10.86 0-21.72 4.65-25.59 14.74l13.18 5.43c3.11-5.43 7.76-7 13.19-7 7.76 0 14.74 4.66 15.51 12.42v.77c-2.32-1.55-8.53-3.88-14.73-3.88-14 0-27.93 7.76-27.93 21.72 0 13.19 11.64 21.72 24 21.72 10.08 0 14.74-4.65 18.61-9.3h.78v7.75h14v-37.18c-1.55-17.07-14.74-27.15-31-27.15zm-1.55 53.52c-4.65 0-11.63-2.33-11.63-8.53 0-7.76 8.53-10.09 15.51-10.09 6.21 0 9.31 1.56 13.19 3.11-1.58 9.35-9.34 15.55-17.1 15.55zm81.45-51.2-16.29 41.89h-.8l-17.07-41.89h-15.51l25.6 59-14.74 32.59h14.72l39.56-91.54zm-130.32 62.06h14.74v-97h-14.74z" transform="translate(-1102 -11)"></path>
    <path d="m1435.56 129.23c-4 4.59-8.73 6.82-14.4 6.82a17.8 17.8 0 0 1 -12.9-5.15c-3.48-3.42-5.24-8-5.24-13.54s1.76-10.13 5.24-13.54a17.8 17.8 0 0 1 12.9-5.15c5.52 0 9.74 1.92 12.93 5.89l.68.85 5.88-5.69-.65-.72a23.83 23.83 0 0 0 -18.87-8.4 26.17 26.17 0 0 0 -26.61 26.75 26.17 26.17 0 0 0 26.61 26.75 27 27 0 0 0 11.51-2.47 25.16 25.16 0 0 0 8.82-6.7l.58-.7-5.81-5.81z" transform="translate(-1102 -11)"></path>
    <path d="m1504.75 92-18.44 48.75-18.53-26.49 18.22-20.9v-1.36h-10l-21 23.73v-23.73h-8v51h8v-14.87l6.73-7.5 15.86 22.37h17l4.82-13h19.32l4.75 13h9.17l-19.35-51zm11 30h-13.53l6.76-18.69z" transform="translate(-1102 -11)"></path>
    <path d="m1561 111.64c-2 2.94-5.56 4.37-9.79 4.37-2.93 0-5.27-.77-6.81-2.29a8.75 8.75 0 0 1 -2.4-6.55v-15.17h-8v16.27c0 4.78 1.51 8.64 4.7 11.49a17 17 0 0 0 11.76 4.24 16 16 0 0 0 10.77-3.69l-.23 1.59v21.1h9v-51h-9z" transform="translate(-1102 -11)"></path>
    <path d="m482.01 117.01-.01-6.45v-29.56h-8v51h8.22l23.83-38-.05 6.3v31.7h8v-51h-9.2z"></path>
    <path d="m1652.42 116.43a12.31 12.31 0 0 0 3.65-3.54 11.75 11.75 0 0 0 2-6.76 13.12 13.12 0 0 0 -4.57-10.2 15.39 15.39 0 0 0 -10.69-3.93h-18.81v51h19.78a16.24 16.24 0 0 0 11.17-4.25 14 14 0 0 0 4.77-10.79 12.2 12.2 0 0 0 -2.55-7.63 13.44 13.44 0 0 0 -4.75-3.9zm-4.6-5.56a6.43 6.43 0 0 1 -5 2.13h-10.82v-13h11.09a6 6 0 0 1 4.8 1.89 6.52 6.52 0 0 1 1.84 4.48 6.45 6.45 0 0 1 -1.91 4.5zm1.41 21.89a6.57 6.57 0 0 1 -5.18 2.24h-12v-14h11.78a7.12 7.12 0 0 1 7.47 6.9 7.06 7.06 0 0 1 -2.07 4.86z" transform="translate(-1102 -11)"></path>
    <path d="m1679.65 92-19.35 51h9.17l4.82-13h19.32l4.75 13h9.18l-19.35-51zm11 30h-13.54l6.77-18.69z" transform="translate(-1102 -11)"></path>
    <path d="m1730.68 90a9.4 9.4 0 0 0 9.32-9.68v-1.32h-7v1.31a2.89 2.89 0 0 1 -.59 2.1 2.22 2.22 0 0 1 -1.83.83 2.35 2.35 0 0 1 -1.91-.81 2.93 2.93 0 0 1 -.67-2.12v-1.31h-7v1.31a9 9 0 0 0 2.9 6.9 9.58 9.58 0 0 0 6.78 2.79z" transform="translate(-1102 -11)"></path>
    <path d="m616.92 117.01.08-6.45v-29.56h-8v51h8.04l23.92-38 .04 6.3v31.7h8v-51h-9.38z"></path>
    <path d="m653 89h14v43h9v-43h13v-8h-36z"></path>
    <path d="m694 132h31v-8h-22v-14h20v-8h-20v-13h22v-8h-31z"></path>
    <path d="m1882.06 120.33a13.53 13.53 0 0 0 -4.75-3.9 12.43 12.43 0 0 0 3.65-3.54 11.82 11.82 0 0 0 2-6.76 13.12 13.12 0 0 0 -4.57-10.2 15.4 15.4 0 0 0 -10.69-3.93h-18.7v51h19.67a16.2 16.2 0 0 0 11.16-4.25 13.93 13.93 0 0 0 4.78-10.79 12.2 12.2 0 0 0 -2.55-7.63zm-9.35-9.46a6.46 6.46 0 0 1 -5 2.13h-10.71v-13h11a6 6 0 0 1 4.8 1.89 6.52 6.52 0 0 1 1.84 4.48 6.45 6.45 0 0 1 -1.93 4.5zm1.41 21.89a6.57 6.57 0 0 1 -5.18 2.24h-11.94v-14h11.67a7.1 7.1 0 0 1 7.46 6.9 7.09 7.09 0 0 1 -2.01 4.86z" transform="translate(-1102 -11)"></path>
  </g>
</svg>