<svg xmlns="http://www.w3.org/2000/svg" viewBox="0 0 777.61 259.93"><defs><clipPath id="clip-path" transform="translate(-.97 -.93)"><path class="cls-1" d="M0 0h778.59v260.86H0z"/></clipPath><clipPath id="clip-path-2" transform="translate(-.97 -.93)"><path class="cls-1" d="M292.59 73c-7.25 11.27-24.93 34.49-24.93 52.76 0 13.65 11.42 24.78 25.43 24.78h.09c14 0 25.43-11.13 25.43-24.78 0-18.27-17.68-41.49-24.92-52.76a.64.64 0 0 0-1.1 0"/></clipPath><linearGradient id="Безымянный_градиент" y1="260.86" x2="1" y2="260.86" gradientTransform="matrix(0 62.26 62.26 0 -15949.35 82.81)" gradientUnits="userSpaceOnUse"><stop offset="0" stop-color="#0095db"/><stop offset=".01" stop-color="#0095db"/><stop offset=".46" stop-color="#0080bb"/><stop offset="1" stop-color="#005286"/></linearGradient><style>.cls-1{fill:none}.cls-2{clip-path:url(#clip-path)}.cls-3{fill:#fff}.cls-4{fill:#005286}.cls-5{fill:#0080bb}</style></defs><g class="cls-2"><path class="cls-3" d="M706.26 50.3c-31.59 0-58.43 20.86-67.79 49.66a1.13 1.13 0 0 1-2.16 0c-9.41-28.72-36.21-49.51-67.75-49.51s-58.33 20.78-67.74 49.5a1.13 1.13 0 0 1-2.16 0c-9.35-28.81-36.2-49.68-67.8-49.68s-58.4 20.8-67.77 49.62a1.13 1.13 0 0 1-2.16 0 72.33 72.33 0 0 0-128.48-18.36.85.85 0 0 1-1.55-.54 30.06 30.06 0 0 0 0-4.55 28.79 28.79 0 0 0-12.33-21.1 27.93 27.93 0 0 0-11.21-4.6 30.5 30.5 0 0 0-5-.43 28.52 28.52 0 0 0-20.33 8.41l-15.5 15.47a.85.85 0 0 1-1.45-.6V29.25c0-15.38-11.77-28.18-26.81-29.18h-1.88a28.14 28.14 0 0 0-15 4.17 28.87 28.87 0 0 0-13.73 24.52v64.67a.55.55 0 0 1-1 .22c-11.2-25.79-36.54-43-64.8-43h-.27c-10.18.21-15.86.94-21 2.7C7.7 57.74.03 67.8.03 80.21a28.45 28.45 0 0 0 8.08 20c.26.27.53.53.8.78a.58.58 0 0 1 0 .84 28.58 28.58 0 0 0-8.82 18.74v.07c-.07 1.25 0 3.38 0 4.09a28.5 28.5 0 0 0 8.8 18.73.55.55 0 0 1 0 .81c-.28.26-.55.52-.81.8a28.45 28.45 0 0 0-8.05 20.05c0 12.41 7.7 22.47 20.6 26.91 5.11 1.75 10.79 2.48 21 2.7h.27c27.78 0 52.75-16.7 64.23-41.78a.85.85 0 0 1 1.62.35v12.41c0 15.39 11.78 28.2 26.81 29.17q.94.06 1.89.06a28.73 28.73 0 0 0 28.58-27.66c0-1 .8-1.19 1.37-.6l3.52 3.52.23.22 15.78 15.78a29.24 29.24 0 0 0 19.62 8.73h1a28.64 28.64 0 0 0 28.56-26.14.71.71 0 0 1 1.26-.38 72.29 72.29 0 0 0 124.51-23.57 1.14 1.14 0 0 1 2.17 0c9.34 28.69 36.07 49.51 67.51 49.63.94 0 3.25.08 6.1.11 1.95 0 3.64 0 5.16-.11a25.36 25.36 0 0 0 9.17-1.89.84.84 0 0 1 1.15.81v41c0 12.77 10.34 24.44 23.06 25.4a25 25 0 0 0 27-24.88v-80.46a1.13 1.13 0 0 1 2.15-.49 71.36 71.36 0 0 0 64.2 40.71h11.23a26.93 26.93 0 0 0 16-5.94.85.85 0 0 1 1.16.06 25 25 0 0 0 18 7.66h1.15a24.62 24.62 0 0 0 16.91-7.8 1.13 1.13 0 0 1 2 .78v45c0 12.76 10.37 24.5 23.1 25.46a25 25 0 0 0 26.93-25v-41.47a.85.85 0 0 1 1.2-.77 25 25 0 0 0 9 1.87c1.52.07 3.28.11 5.23.11 2.85 0 5.34-.08 6.16-.11 39.2-.15 71.08-32.48 71.08-72.11s-32-72.11-71.35-72.11m-483.32 50.77a72.5 72.5 0 0 0-1.38 37.52.83.83 0 0 1-1.4.77l-18-18a1.12 1.12 0 0 1 0-1.59c3.07-3.08 14.29-14.34 19.42-19.52a.84.84 0 0 1 1.4.85m228 45.31a24.71 24.71 0 0 0-9.56-1.9h-10.6c-11.75 0-21.31-9.91-21.31-22.08s9.56-22.08 21.31-22.08 21.32 9.9 21.32 22.08v23.18a.85.85 0 0 1-1.16.8m137.7 0a24.92 24.92 0 0 0-9.12-1.72h-11c-11.76 0-21.33-9.91-21.33-22.08s9.57-22.08 21.32-22.08 21.32 9.9 21.32 22.08v23a.85.85 0 0 1-1.18.78m117.56-1.87h-10.67a24.76 24.76 0 0 0-9.57 1.9.85.85 0 0 1-1.16-.8v-23.27c0-12.18 9.57-22.08 21.32-22.08s21.32 9.9 21.32 22.08-9.56 22.08-21.32 22.08"/><path class="cls-4" d="M24.84 179.71c3.52 1.22 8 1.81 17 2 26.51 0 49-18.43 55.77-43.44a62.09 62.09 0 0 0 2.09-15.61 62.59 62.59 0 0 0-2.09-15.59c-6.76-25-29.26-43.44-55.77-43.44-9 .18-13.48.78-17 2-5.64 1.88-11.81 5.96-11.81 14.56a15.35 15.35 0 0 0 15.39 15.58h.83c5.48 0 7-1 12.59-1a26.71 26.71 0 0 1 21.65 11.25c.28.43-.07 1-.71 1H28.42a15.46 15.46 0 0 0-15.39 14.59 17.69 17.69 0 0 0 0 2.06 15.48 15.48 0 0 0 15.37 14.6h34.39a.7.7 0 0 1 .71 1 26.71 26.71 0 0 1-21.65 11.25c-5.56 0-7.11-1-12.59-1h-.83a15.34 15.34 0 0 0-15.4 15.55c0 8.6 6.19 12.68 11.83 14.61M137.44 13.07h-1a15.7 15.7 0 0 0-15.69 15.69v137c0 8.35 6.31 15.65 14.65 16.19h1a15.7 15.7 0 0 0 15.7-15.7v-29.9a1 1 0 0 1 1-1 1 1 0 0 1 .69.29l41.72 41.7a15.694 15.694 0 1 0 22.19-22.2l-31.09-31.07a5.08 5.08 0 0 1 0-7.18l26.78-26.82a15.694 15.694 0 0 0-22.2-22.19l-37.41 37.43a.94.94 0 0 1-.69.3 1 1 0 0 1-1-1V29.23c0-8.36-6.31-15.66-14.65-16.2"/><path class="cls-5" d="M614.9 183.43a12 12 0 0 0 12-12v-48.89c0-32.59-26.18-59.11-58.35-59.11s-58.35 26.52-58.35 59.11 26.17 59.11 58.35 59.11c0 0 7.58.15 11.12 0a12.15 12.15 0 0 0 11.91-12.12 12 12 0 0 0-12-11.91h-11c-18.93 0-34.32-15.74-34.32-35.08s15.39-35.08 34.32-35.08 34.32 15.74 34.32 35.08v48.88a12 12 0 0 0 12 12M477.18 246.91a12 12 0 0 0 12-12V122.39c0-32.59-26.18-59.11-58.35-59.11s-58.35 26.52-58.35 59.11 26.18 59.11 58.35 59.11c0 0 2.72.12 5.89.12 1.58 0 3.28 0 4.81-.12a12 12 0 0 0-.11-24h-10.57c-18.92 0-34.32-15.74-34.32-35.08s15.4-35.08 34.32-35.08 34.32 15.74 34.32 35.08V234.9a12 12 0 0 0 12 12M659.93 246.91a12 12 0 0 1-12-12V122.39c0-32.59 26.17-59.11 58.35-59.11s58.35 26.52 58.35 59.11-26.18 59.11-58.35 59.11c0 0-7.35.16-10.7 0a12 12 0 0 1 .1-24h10.6c18.92 0 34.31-15.74 34.31-35.08s-15.39-35.08-34.31-35.08-34.33 15.73-34.33 35.05V234.9a12 12 0 0 1-12 12"/><path class="cls-4" d="M706.27 50.28c-31.59 0-58.44 20.86-67.8 49.66a1.13 1.13 0 0 1-2.16 0c-9.4-28.72-36.21-49.51-67.74-49.51s-58.33 20.78-67.74 49.5a1.13 1.13 0 0 1-2.16 0c-9.36-28.81-36.21-49.68-67.8-49.68s-58.4 20.82-67.78 49.62a1.13 1.13 0 0 1-2.16 0 72.33 72.33 0 0 0-128.47-18.36.85.85 0 0 1-1.55-.54 28.78 28.78 0 0 0-12.37-25.65 28 28 0 0 0-11.22-4.6 30.4 30.4 0 0 0-5-.42 28.51 28.51 0 0 0-20.29 8.4l-15.49 15.47a.85.85 0 0 1-1.45-.6V29.23c0-15.38-11.78-28.16-26.81-29.16-.62 0-1.26-.06-1.89-.06a28 28 0 0 0-15 4.18 28.82 28.82 0 0 0-13.73 24.51v64.72a.55.55 0 0 1-1 .22c-11.2-25.8-36.55-43.06-64.81-43.06h-.27c-10.17.21-15.85.94-21 2.7C7.71 57.72.03 67.78.03 80.19a28.45 28.45 0 0 0 8.08 20c.26.27.53.53.8.79a.57.57 0 0 1 0 .83 28.59 28.59 0 0 0-8.8 18.69v.08c-.07 1.24 0 3.37 0 4.09a28.53 28.53 0 0 0 8.81 18.72.55.55 0 0 1 0 .81l-.8.8a28.45 28.45 0 0 0-8.09 20.07c0 12.41 7.7 22.47 20.6 26.91 5.11 1.76 10.79 2.49 21 2.7h.27c27.79 0 52.76-16.69 64.23-41.77a.85.85 0 0 1 1.63.34v12.42c0 15.38 11.78 28.19 26.81 29.16.63.05 1.26.07 1.88.07a28.72 28.72 0 0 0 28.58-27.64c0-1 .81-1.19 1.38-.6l3.52 3.52.22.22 15.78 15.78a29.22 29.22 0 0 0 19.62 8.73h1a28.66 28.66 0 0 0 28.56-26.15.71.71 0 0 1 1.26-.38 72.29 72.29 0 0 0 124.56-23.55 1.13 1.13 0 0 1 2.16 0c9.35 28.69 36.07 49.53 67.51 49.65.82 0 3.31.11 6.16.11 1.95 0 3.71 0 5.23-.12a24.64 24.64 0 0 0 9-1.87.85.85 0 0 1 1.19.78v41c0 12.76 10.37 24.5 23.1 25.45a25 25 0 0 0 26.93-24.94v-80.46a1.13 1.13 0 0 1 2.15-.49 71.36 71.36 0 0 0 64.2 40.71c.06 0 5.55.15 11.23 0a25.63 25.63 0 0 0 15.94-5.93.84.84 0 0 1 1.16 0 25 25 0 0 0 18 7.66h1.15a24.67 24.67 0 0 0 16.91-7.8 1.13 1.13 0 0 1 2 .77v45c0 12.76 10.37 24.51 23.09 25.46a25 25 0 0 0 26.94-24.94v-41.46a.86.86 0 0 1 1.2-.78 24.76 24.76 0 0 0 9 1.87c1.52.08 3.28.12 5.23.12 2.85 0 5.33-.09 6.16-.12 39.2-.15 71.08-32.48 71.08-72.11s-32-72.11-71.35-72.11m-600.98 90.14c-7.88 29-34 49.29-63.48 49.29h-.16c-9.61-.2-14.88-.86-19.45-2.43-10.94-3.77-17.2-11.85-17.2-22.21a23.5 23.5 0 0 1 6.65-16.56 23 23 0 0 1 5.1-3.92.85.85 0 0 0 0-1.48 23.59 23.59 0 0 1-11.7-18.74c0-.12-.07-2.2 0-3.47a23.59 23.59 0 0 1 11.72-18.76.84.84 0 0 0 0-1.45 22.74 22.74 0 0 1-5.13-4 23.48 23.48 0 0 1-6.64-16.5c0-10.33 6.26-18.42 17.2-22.18 4.57-1.57 9.84-2.23 19.45-2.43h.16c29.51 0 55.6 20.27 63.48 49.29a67.57 67.57 0 0 1 0 35.55m118 42.56a23.55 23.55 0 0 1-16.76 7h-.85a24.31 24.31 0 0 1-16.25-7.27l-28-27.95a.85.85 0 0 0-1.45.61v10.93a23.72 23.72 0 0 1-23.7 23.7c-.51 0-1 0-1.56-.05-12.41-.81-22.13-11.43-22.13-24.18v-137a23.75 23.75 0 0 1 11.46-20.36A23.2 23.2 0 0 1 136.39 5c.52 0 1 0 1.56.05 12.42.8 22.14 11.43 22.14 24.18v56.39a.86.86 0 0 0 1.47.61l24-24a23.5 23.5 0 0 1 16.75-6.94 24.75 24.75 0 0 1 5.1.53 22.35 22.35 0 0 1 7.34 3 23.75 23.75 0 0 1 4.32 37l-22.73 22.65a2.82 2.82 0 0 0 0 4l27 27a23.72 23.72 0 0 1 0 33.5m-1.72-44.46a.83.83 0 0 1-1.4.78l-17.56-17.56a1.8 1.8 0 0 1 0-2.55c3.63-3.63 14.08-14.12 19-19.06a.84.84 0 0 1 1.39.85 72.29 72.29 0 0 0-1.38 37.54m137.74-11.77a67.36 67.36 0 1 1-71.62-71.62 67.56 67.56 0 0 1 71.62 71.62m137.81 108.13a20 20 0 0 1-21.88 19.93c-10.38-.94-18.15-10-18.15-20.39v-50.34a.83.83 0 0 0-.84-.84.92.92 0 0 0-.66.32 15.29 15.29 0 0 1-3.83 3c-3.27 2-5.94 2.59-10 2.89-1.46.08-3.16.12-5.06.12-2.88 0-5.38-.09-6.06-.11-36.5-.1-66.18-30.17-66.18-67.12s29.77-67.11 66.35-67.11 66.35 30.11 66.35 67.11Zm137.7-63.8a20.27 20.27 0 0 1-19.23 20.38h-.79a20 20 0 0 1-17.48-10.28.85.85 0 0 0-.74-.43.84.84 0 0 0-.68.36 20.53 20.53 0 0 1-16.24 8.57c-6 .23-11.2 0-11.19 0-36.59 0-66.35-30.1-66.35-67.11s29.81-67.13 66.35-67.13 66.35 30.11 66.35 67.11Zm71.51 18.46c-.67 0-3.17.12-6 .12-1.91 0-3.61 0-5.06-.12a19.71 19.71 0 0 1-10-2.9s-.86-.54-1.11-.72-1.26-.95-1.49-1.16-1.18-1.07-1.23-1.12a1.84 1.84 0 0 0-.66-.32.83.83 0 0 0-.85.83V234.46c0 10.42-7.78 19.45-18.15 20.4A20 20 0 0 1 640 234.93V122.39c0-37 29.76-67.11 66.35-67.11s66.35 30.11 66.35 67.11-29.68 67-66.19 67.11"/><path class="cls-4" d="M568.57 95.4c-14.51 0-26.32 12.15-26.32 27.08s11.81 27.08 26.32 27.08h11a19.91 19.91 0 0 1 13.84 5.6.88.88 0 0 0 .61.24.84.84 0 0 0 .85-.84v-32.08c0-14.93-11.81-27.08-26.32-27.08m20.13 50.88a24.83 24.83 0 0 0-9.11-1.72h-11c-11.75 0-21.32-9.9-21.32-22.08s9.56-22.08 21.32-22.08 21.32 9.91 21.32 22.08v23a.86.86 0 0 1-1.19.78M706.27 95.25c-14.52 0-26.32 12.15-26.32 27.08v32.5a.84.84 0 0 0 .85.85.89.89 0 0 0 .62-.27 20 20 0 0 1 14.25-6h10.6c14.51 0 26.31-12.15 26.31-27.08s-11.8-27.08-26.31-27.08m0 49.16h-10.6a24.71 24.71 0 0 0-9.56 1.9.85.85 0 0 1-1.16-.79v-23.19c0-12.17 9.56-22.08 21.32-22.08s21.31 9.91 21.31 22.08-9.56 22.08-21.31 22.08M430.85 95.25c-14.51 0-26.32 12.15-26.32 27.08s11.81 27.08 26.32 27.08h10.59a20 20 0 0 1 14.26 6 .86.86 0 0 0 .62.26.83.83 0 0 0 .85-.84v-32.5c0-14.93-11.81-27.08-26.32-27.08m21.32 50.27a.85.85 0 0 1-1.16.79 24.76 24.76 0 0 0-9.57-1.9h-10.59c-11.76 0-21.32-9.91-21.32-22.08s9.56-22.08 21.32-22.08 21.32 9.9 21.32 22.08ZM334.81 123.63c-1.48-1.29-2.45-2.14-4.68-2.14s-3.2.85-4.67 2.14c-.42.37-.88.76-1.38 1.14a.66.66 0 0 0-.25.49 30.1 30.1 0 0 1-.48 5 .19.19 0 0 0 .31.18 10 10 0 0 1 6.47-2.19c4 0 6.15 1.85 7.85 3.33 1.48 1.29 2.45 2.14 4.68 2.14s3.2-.85 4.68-2.14a13.56 13.56 0 0 1 3.81-2.57 60.16 60.16 0 0 0 .37-6.19c-.32.25-.65.54-1 .85-1.7 1.49-3.81 3.33-7.85 3.33s-6.15-1.84-7.85-3.33M350.51 112.25c-1.7 1.49-3.81 3.34-7.85 3.34s-6.15-1.85-7.85-3.34c-1.48-1.29-2.45-2.14-4.68-2.14s-3.2.85-4.67 2.14a15.21 15.21 0 0 1-3 2.2l.09.34c.35 1.44.62 2.87.83 4.29a10.13 10.13 0 0 1 6.76-2.41c4 0 6.15 1.84 7.85 3.33 1.48 1.29 2.45 2.14 4.68 2.14s3.2-.85 4.68-2.14a13 13 0 0 1 4-2.64c-.15-1.77-.37-3.51-.66-5.23l-.14.12"/><path class="cls-4" d="m297.41 67.93.73 1.15.34.51c.19.3.39.6.6.91l.33.5c.24.37.5.75.76 1.13l.25.38 1.09 1.62c1.3 1.94 2.71 4 4.15 6.23s2.83 4.36 4.25 6.68c.86 1.41 1.73 2.85 2.57 4.32 1.22 2.12 2.41 4.29 3.53 6.5.56 1.11 1.1 2.22 1.62 3.34a83.84 83.84 0 0 1 3.39 8.46c.41-.3.81-.65 1.27-1 1.69-1.48 3.81-3.33 7.84-3.33s6.15 1.85 7.85 3.33c1.48 1.29 2.45 2.14 4.68 2.14s3.2-.85 4.68-2.14a17.46 17.46 0 0 1 2.17-1.71 59.41 59.41 0 0 0-54.79-43.92.22.22 0 0 0-.2.34ZM262.03 114.07a17.83 17.83 0 0 1-2.3-1.79c-1.48-1.29-2.45-2.14-4.68-2.14s-3.19.85-4.67 2.14c-1.7 1.49-3.81 3.33-7.84 3.33s-6.15-1.84-7.85-3.33l-.86-.73q-.51 2.74-.76 5.57a12.18 12.18 0 0 1 4.79 2.91c1.48 1.29 2.45 2.14 4.68 2.14s3.2-.85 4.67-2.14c1.7-1.49 3.81-3.33 7.84-3.33a10 10 0 0 1 6 1.86c.25-1.49.57-3 1-4.49"/><path class="cls-4" d="M242.51 133.68c2.22 0 3.19-.85 4.67-2.14 1.7-1.48 3.81-3.33 7.84-3.33a10 10 0 0 1 5.95 1.81 30.16 30.16 0 0 1-.48-5.15v-.54c-.29-.23-.56-.47-.83-.7-1.47-1.29-2.44-2.14-4.67-2.14s-3.19.85-4.67 2.14c-1.7 1.49-3.81 3.33-7.84 3.33s-6.15-1.84-7.85-3.33a12.22 12.22 0 0 0-1.86-1.43v.11a60.71 60.71 0 0 0 .34 6.36 12.35 12.35 0 0 1 4.69 2.87c1.48 1.29 2.45 2.14 4.68 2.14M237.83 108.62c1.48 1.29 2.45 2.14 4.68 2.14s3.19-.85 4.67-2.14c1.7-1.48 3.81-3.33 7.84-3.33s6.15 1.85 7.85 3.33l.61.53c4.47-12.89 13-25.65 19.34-35l1-1.56c.12-.18.24-.34.35-.52l.7-1 .35-.52.58-.89.34-.53c.26-.39.51-.78.73-1.14l2.89-4.6a.22.22 0 0 0-.2-.34 59.38 59.38 0 0 0-54.53 43.28.23.23 0 0 0 .11.25 15.65 15.65 0 0 1 2.73 2"/></g><g style="clip-path:url(#clip-path-2)"><path style="fill:url(#Безымянный_градиент)" d="M266.68 71.79h50.96v77.85h-50.96z"/></g><g class="cls-2"><path class="cls-4" d="M342.66 138.51c-4 0-6.15-1.85-7.85-3.34-1.48-1.28-2.45-2.14-4.68-2.14a6.3 6.3 0 0 0-1.6.2 9.14 9.14 0 0 0-4.45 1.94 13.91 13.91 0 0 0-3.13 3.23c-.94 1.34-2 3-2.82 4.14a31.75 31.75 0 0 1-25.77 13.3h-.24a31.73 31.73 0 0 1-25.72-13c-.82-1.17-2.06-3.06-3.12-4.57a13.91 13.91 0 0 0-3.13-3.23 10.51 10.51 0 0 0-3.05-1.62h-.08l-.42-.13-.29-.06a4.73 4.73 0 0 0-1-.12h-.3c-2.22 0-3.19.86-4.67 2.14-1.7 1.49-3.81 3.34-7.84 3.34s-6.15-1.85-7.85-3.34l-.56-.48a59.36 59.36 0 0 0 115.92.9 10.42 10.42 0 0 1-7.36 2.92"/><path d="M767 34.24a11.34 11.34 0 1 1-11.34 11.34A11.37 11.37 0 0 1 767 34.24" transform="translate(-.97 -.93)" style="fill-rule:evenodd;fill:#0080bb"/><path class="cls-3" d="M770.7 48.26a1.18 1.18 0 0 1-.91 1.89 1.22 1.22 0 0 1-1-.51l-2.52-3.63h-2v2.94a1.2 1.2 0 0 1-1.17 1.2 1.21 1.21 0 0 1-1.21-1.2v-8.88a1.14 1.14 0 0 1 1.26-1.26h4a3.49 3.49 0 0 1 3.77 3.61 3.25 3.25 0 0 1-2.14 3.24Zm-6.39-4.3h2.51a1.55 1.55 0 1 0 0-3.09h-2.51Z"/></g></svg>